G04 ================== begin FILE IDENTIFICATION RECORD ==================*
G04 Layout Name:  ILI9488_TEST_V10A.brd*
G04 Film Name:    BOTTOM*
G04 File Format:  Gerber RS274X*
G04 File Origin:  Cadence Allegro 17.2-S031*
G04 Origin Date:  Fri Jan 26 12:20:49 2018*
G04 *
G04 Layer:  BOARD GEOMETRY/OUTLINE*
G04 Layer:  ETCH/BOTTOM*
G04 Layer:  PIN/BOTTOM*
G04 Layer:  VIA CLASS/BOTTOM*
G04 *
G04 Offset:    (0.0000 0.0000)*
G04 Mirror:    No*
G04 Mode:      Positive*
G04 Rotation:  0*
G04 FullContactRelief:  No*
G04 UndefLineWidth:     0.1524*
G04 ================== end FILE IDENTIFICATION RECORD ====================*
%FSLAX55Y55*MOMM*%
%IR0*IPPOS*OFA0.00000B0.00000*MIA0B0*SFA1.00000B1.00000*%
%ADD13R,1.55X.3*%
%ADD12R,.6604X1.016*%
%ADD10C,.6096*%
%ADD14C,1.778*%
%ADD11R,.9144X.9144*%
%ADD15C,.127*%
%ADD16C,.254*%
%ADD17C,.1524*%
%ADD18C,.508*%
%ADD19C,.762*%
%ADD20C,1.27*%
%ADD21C,5.0362*%
G75*
%LPD*%
G75*
G36*
G01X100000Y20000D02*
G02X20000Y100000I5000J85000D01*
G01Y221130D01*
G02X58220Y230750I20321J0D01*
G03Y469250I221780J119250D01*
G02X20000Y478870I-17899J9620D01*
G01Y5064050D01*
G02X57470Y5074950I20320J1D01*
G03Y5345050I212530J135050D01*
G02X20000Y5355950I-17150J10899D01*
G01Y5490000D01*
G02X100000Y5570000I78333J1667D01*
G01X9540000D01*
G02X9620000Y5490000I-5000J-85000D01*
G01Y100000D01*
G02X9540000Y20000I-85000J5000D01*
G01X100000D01*
G37*
%LPC*%
G75*
G36*
G01X9229120Y680980D02*
G03X9196880I-16120J-12364D01*
G02X9000980Y876880I-110880J85020D01*
G03Y909120I-12364J16120D01*
G02Y1130880I85020J110880D01*
G03Y1163120I-12364J16120D01*
G02X9004690Y1387630I85017J110881D01*
G03X9005080Y1420390I-11824J16523D01*
G02Y1635610I80920J107610D01*
G03X9004690Y1668370I-12214J16237D01*
G02X9000980Y1892880I81307J113629D01*
G03Y1925120I-12364J16120D01*
G02Y2146880I85020J110880D01*
G03Y2179120I-12364J16120D01*
G02Y2400880I85020J110880D01*
G03Y2433120I-12364J16120D01*
G02Y2654880I85020J110880D01*
G03Y2687120I-12364J16120D01*
G02Y2908880I85020J110880D01*
G03Y2941120I-12364J16120D01*
G02Y3162880I85020J110880D01*
G03Y3195120I-12364J16120D01*
G02Y3416880I85020J110880D01*
G03Y3449120I-12364J16120D01*
G02Y3670880I85020J110880D01*
G03Y3703120I-12364J16120D01*
G02Y3924880I85020J110880D01*
G03Y3957120I-12364J16120D01*
G02Y4178880I85020J110880D01*
G03Y4211120I-12364J16120D01*
G02Y4432880I85020J110880D01*
G03Y4465120I-12364J16120D01*
G02Y4686880I85020J110880D01*
G03Y4719120I-12364J16120D01*
G02X9196880Y4915020I85020J110880D01*
G03X9229120I16120J12364D01*
G02X9425020Y4719120I110880J-85020D01*
G03Y4686880I12364J-16120D01*
G02Y4465120I-85020J-110880D01*
G03Y4432880I12364J-16120D01*
G02Y4211120I-85020J-110880D01*
G03Y4178880I12364J-16120D01*
G02Y3957120I-85020J-110880D01*
G03Y3924880I12364J-16120D01*
G02Y3703120I-85020J-110880D01*
G03Y3670880I12364J-16120D01*
G02Y3449120I-85020J-110880D01*
G03Y3416880I12364J-16120D01*
G02Y3195120I-85020J-110880D01*
G03Y3162880I12364J-16120D01*
G02Y2941120I-85020J-110880D01*
G03Y2908880I12364J-16120D01*
G02Y2687120I-85020J-110880D01*
G03Y2654880I12364J-16120D01*
G02X9421310Y2430370I-85017J-110881D01*
G03X9420920Y2397610I11824J-16523D01*
G02Y2182390I-80920J-107610D01*
G03X9421310Y2149630I12214J-16237D01*
G02Y1922370I-81310J-113630D01*
G03X9420920Y1889610I11824J-16523D01*
G02Y1674390I-80920J-107610D01*
G03X9421310Y1641630I12214J-16237D01*
G02X9425020Y1417120I-81307J-113629D01*
G03Y1384880I12364J-16120D01*
G02Y1163120I-85020J-110880D01*
G03Y1130880I12364J-16120D01*
G02Y909120I-85020J-110880D01*
G03Y876880I12364J-16120D01*
G02X9229120Y680980I-85020J-110880D01*
G37*
G36*
G01X4747570Y532240D02*
G02X4626640Y557050I-67573J-22241D01*
G01Y1097900D01*
X4527900Y1196640D01*
X4204670D01*
X4178850Y1173820D01*
G02X4151920Y1163620I-26930J30450D01*
G01X4060480D01*
G02X4036090Y1171740I-9J40663D01*
G03X4023910I-6090J-8125D01*
G02X4022090Y1170460I-24293J32607D01*
G03X4023020Y1153010I5644J-8449D01*
G02X3946200Y1033940I-33021J-63012D01*
G01X3835710D01*
G03X3821110Y999490I-1J-20318D01*
G02X3753700Y880750I-51106J-49491D01*
G01X3748840Y881900D01*
X3737580Y872740D01*
G02X3711920Y863620I-25660J31538D01*
G01X3620480D01*
G02X3605740Y866390I10J40658D01*
G01Y854260D01*
X3201050D01*
X3144260Y911050D01*
Y1148950D01*
X3177950Y1182630D01*
X3129000Y1231580D01*
X3127340Y1232340D01*
G02X3106390Y1347000I29659J64663D01*
G02Y1447000I50610J50000D01*
G02Y1547000I50610J50000D01*
G02Y1647000I50610J50000D01*
G02Y1747000I50610J50000D01*
G02Y1847000I50610J50000D01*
G02Y1947000I50610J50000D01*
G02Y2047000I50610J50000D01*
G02X3103640Y2144050I50609J49998D01*
G01Y2389100D01*
X3200400Y2485860D01*
X3440000D01*
Y2690000D01*
X3674260D01*
Y3821050D01*
X3174260Y4321050D01*
Y4518950D01*
X3221050Y4565740D01*
X3548950D01*
X3605740Y4508950D01*
Y4386330D01*
G03X3616820Y4376210I10161J0D01*
G02X3620480Y4376380I3715J-40487D01*
G01X3711920D01*
G02X3732990Y4370500I8J-40662D01*
G01X3744450Y4363550D01*
X3748820Y4364910D01*
G02X3758860Y4226740I21185J-67910D01*
G01X3754080Y4227500D01*
X3739090Y4214030D01*
G02X3711920Y4203620I-27170J30252D01*
G01X3690120D01*
G03X3675750Y4168930I0J-20321D01*
G01X3945740Y3898950D01*
Y2680860D01*
X4018930D01*
X4020410Y2681320D01*
G02X4032500Y2683160I12093J-38820D01*
G01X4187500D01*
G02X4228160Y2642500I0J-40660D01*
G01Y2612500D01*
G02X4224200Y2595000I-40648J0D01*
G02X4228160Y2577500I-36688J-17500D01*
G01Y2550860D01*
X4854600D01*
X5223360Y2182100D01*
Y1067050D01*
G02X5116640I-53360J-47050D01*
G01Y1182760D01*
G03X5094920Y1203030I-20320J-1D01*
G02X5085080I-4920J70970D01*
G03X5063360Y1182760I-1400J-20271D01*
G01Y937050D01*
G02X4956640I-53360J-47050D01*
G01Y1058760D01*
G03X4934920Y1079030I-20320J-1D01*
G02X4925080I-4920J70970D01*
G03X4903360Y1058760I-1400J-20271D01*
G01Y817050D01*
G02X4835580Y700340I-53360J-47048D01*
G01X4834560Y700550D01*
X4823360D01*
Y677180D01*
X4825580Y674400D01*
G02X4767570Y558900I-55582J-44402D01*
G03X4747570Y532240I-698J-20309D01*
G37*
G54D21*
X1630000Y560000D03*
Y5020000D03*
%LPD*%
G75*
G36*
G01X3560000Y900000D02*
X3220000D01*
X3190000Y930000D01*
Y1130000D01*
X3210000Y1150000D01*
X3560000D01*
Y900000D01*
G37*
G36*
G01X3169850Y1727480D02*
X3157000D01*
X3151090Y1694670D01*
X3164770Y1697000D01*
X3169850Y1702080D01*
Y1727480D01*
G37*
G36*
G01X3424560Y1689690D02*
X3468080Y1654280D01*
X3520150Y1700000D01*
X3468080Y1745720D01*
X3424560Y1710310D01*
G03Y1689690I23210J-10310D01*
G37*
G36*
G01X3169850Y1627480D02*
X3157000D01*
X3151090Y1594670D01*
X3164770Y1597000D01*
X3169850Y1602080D01*
Y1627480D01*
G37*
G36*
G01X3424560Y1539690D02*
X3468080Y1504280D01*
X3520150Y1550000D01*
X3468080Y1595720D01*
X3424560Y1560310D01*
G03Y1539690I23210J-10310D01*
G37*
G36*
G01X3169850Y1527480D02*
X3157000D01*
X3151090Y1494670D01*
X3164770Y1497000D01*
X3169850Y1502080D01*
Y1527480D01*
G37*
G36*
G01X3422470Y1384830D02*
X3468080Y1354280D01*
X3520140Y1400280D01*
X3468080Y1445720D01*
X3421860Y1407960D01*
G03X3422470Y1384830I22910J-10969D01*
G37*
G36*
G01X3424560Y1239690D02*
X3468080Y1204280D01*
X3520150Y1250000D01*
X3468080Y1295720D01*
X3424560Y1260310D01*
G03Y1239690I23210J-10310D01*
G37*
G36*
G01X3368870Y1933400D02*
X3373360Y1937900D01*
Y2177900D01*
X3379600Y2184140D01*
X3431840D01*
Y2157500D01*
G03X3472500Y2116840I40660J0D01*
G01X3573100D01*
G02X3587470Y2082150I0J-20321D01*
G01X3574260Y2068950D01*
Y1946330D01*
G02X3563180Y1936210I-10161J0D01*
G03X3559520Y1936380I-3715J-40487D01*
G01X3468080D01*
G03X3442420Y1927260I0J-40658D01*
G01X3428650Y1916060D01*
X3376050D01*
G02X3368870Y1933400I4J10158D01*
G37*
G36*
G01X3424560Y1839690D02*
X3468080Y1804280D01*
X3520150Y1850000D01*
X3468080Y1895720D01*
X3424560Y1860310D01*
G03Y1839690I23210J-10310D01*
G37*
G36*
G01X3174780Y2027480D02*
X3157000D01*
X3154750Y1994750D01*
X3187480Y1997000D01*
Y2014780D01*
G03X3174780Y2027480I-12700J0D01*
G37*
G36*
G01X3148020Y2131120D02*
X3135460Y2118540D01*
X3157000Y2093820D01*
X3178540Y2118540D01*
X3165980Y2131120D01*
G03X3148020I-8980J-8980D01*
G37*
G36*
G01X3174780Y1827480D02*
X3157000D01*
X3154750Y1794750D01*
X3187480Y1797000D01*
Y1814780D01*
G03X3174780Y1827480I-12700J0D01*
G37*
G36*
G01X3457660Y2235580D02*
X3472500Y2222500D01*
X3553180Y2237500D01*
X3472500Y2252500D01*
X3457660Y2239420D01*
G03Y2235580I12550J-1920D01*
G37*
G36*
G01X3174780Y1927480D02*
X3157000D01*
X3154750Y1894750D01*
X3187480Y1897000D01*
Y1914780D01*
G03X3174780Y1927480I-12700J0D01*
G37*
G36*
G01X3457660Y2495580D02*
X3472500Y2482500D01*
X3553180Y2497500D01*
X3472500Y2512500D01*
X3457660Y2499420D01*
G03Y2495580I12550J-1920D01*
G37*
G36*
G01Y2560580D02*
X3472500Y2547500D01*
X3553180Y2562500D01*
X3472500Y2577500D01*
X3457660Y2564420D01*
G03Y2560580I12550J-1920D01*
G37*
G36*
G01Y2625580D02*
X3472500Y2612500D01*
X3553180Y2627500D01*
X3472500Y2642500D01*
X3457660Y2629420D01*
G03Y2625580I12550J-1920D01*
G37*
G36*
G01Y2365580D02*
X3472500Y2352500D01*
X3553180Y2367500D01*
X3472500Y2382500D01*
X3457660Y2369420D01*
G03Y2365580I12550J-1920D01*
G37*
G36*
G01Y2430580D02*
X3472500Y2417500D01*
X3553180Y2432500D01*
X3472500Y2447500D01*
X3457660Y2434420D01*
G03Y2430580I12550J-1920D01*
G37*
G36*
G01Y2300580D02*
X3472500Y2287500D01*
X3553180Y2302500D01*
X3472500Y2317500D01*
X3457660Y2304420D01*
G03Y2300580I12550J-1920D01*
G37*
G36*
G01X3866640Y2462100D02*
Y2117900D01*
X3957900Y2026640D01*
X4000000D01*
Y1950000D01*
X3620000D01*
Y2050000D01*
X3660000Y2090000D01*
Y2190000D01*
X3720000Y2250000D01*
Y3840000D01*
X3220000Y4340000D01*
Y4500000D01*
X3240000Y4520000D01*
X3530000D01*
X3560000Y4490000D01*
Y4220000D01*
X3900000Y3880000D01*
Y2495460D01*
X3866640Y2462100D01*
G37*
G36*
G01X3755440Y960310D02*
X3711920Y995720D01*
X3659850Y950000D01*
X3711920Y904280D01*
X3755440Y939690D01*
G03Y960310I-23210J10310D01*
G37*
G36*
G01X3954860Y1082040D02*
X3968460Y1068460D01*
X3995490Y1086810D01*
X3980000Y1100000D01*
X3972820D01*
X3954860Y1082040D01*
G37*
G36*
G01X3755440Y1110310D02*
X3711920Y1145720D01*
X3659850Y1100000D01*
X3711920Y1054280D01*
X3755440Y1089690D01*
G03Y1110310I-23210J10310D01*
G37*
G36*
G01X4256640Y2007900D02*
Y1921700D01*
X4317420Y1860920D01*
Y1804280D01*
G03X4358080Y1763620I40660J0D01*
G01X4449520D01*
G03X4473910Y1771740I9J40663D01*
G02X4486090I6090J-8125D01*
G03X4510480Y1763620I24381J32543D01*
G01X4601920D01*
G03X4642580Y1804280I0J40660D01*
G01Y1895720D01*
G03X4641610Y1904540I-40659J-8D01*
G02X4663350Y1929170I19838J4399D01*
G03X4690470Y1931870I6643J70829D01*
G02X4716640Y1912410I5850J-19460D01*
G01Y1207880D01*
G02X4681950Y1193510I-20320J-3D01*
G01X4572100Y1303360D01*
X4204670D01*
X4180880Y1324390D01*
X4185780Y1331770D01*
G03X4192580Y1354280I-33857J22510D01*
G01Y1445720D01*
G03X4192220Y1451080I-40657J-39D01*
G01X4186380Y1494980D01*
X4195640Y1505920D01*
G03X4205280Y1532200I-31018J26286D01*
G01Y1633800D01*
G03X4164620Y1674460I-40660J0D01*
G01X4098580D01*
G03X4057920Y1633800I0J-40660D01*
G01Y1532200D01*
G03X4061420Y1515690I40661J-6D01*
G01X4064140Y1509580D01*
X4030620Y1473320D01*
G03X4020370Y1452370I29863J-27593D01*
G01X4008380Y1380040D01*
X3964720Y1336380D01*
X3908080D01*
G03X3867420Y1295720I0J-40660D01*
G01Y1204280D01*
G03X3869210Y1192340I40661J-8D01*
G02X3849790Y1166060I-19425J-5961D01*
G01X3751350D01*
X3741030Y1174460D01*
X3746010Y1182110D01*
G03X3752580Y1204280I-34092J22162D01*
G01Y1295720D01*
G03X3745150Y1319150I-40657J0D01*
G02Y1330850I8307J5850D01*
G03X3752580Y1354280I-33227J23430D01*
G01Y1445720D01*
G03X3745150Y1469150I-40657J0D01*
G02Y1480850I8307J5850D01*
G03X3752580Y1504280I-33227J23430D01*
G01Y1595720D01*
G03X3745150Y1619150I-40657J0D01*
G02Y1630850I8307J5850D01*
G03X3752580Y1654280I-33227J23430D01*
G01Y1745720D01*
G03X3746010Y1767890I-40662J8D01*
G01X3741030Y1775540D01*
X3751350Y1783940D01*
X3936570D01*
X3970780Y1755110D01*
G03X3996980Y1745540I26200J31079D01*
G01X4063020D01*
G03X4103680Y1786200I0J40660D01*
G01Y1887800D01*
G03X4063020Y1928460I-40660J0D01*
G01X4045740D01*
Y2026640D01*
X4237900D01*
X4256640Y2007900D01*
G37*
G36*
G01X3655890Y1339240D02*
X3620480Y1295720D01*
X3666200Y1243650D01*
X3711920Y1295720D01*
X3676510Y1339240D01*
G03X3655890I-10310J-23210D01*
G37*
G36*
G01X3676510Y1310760D02*
X3711920Y1354280D01*
X3666200Y1406350D01*
X3620480Y1354280D01*
X3655890Y1310760D01*
G03X3676510I10310J23210D01*
G37*
G36*
G01X3655890Y1489240D02*
X3620480Y1445720D01*
X3666200Y1393650D01*
X3711920Y1445720D01*
X3676510Y1489240D01*
G03X3655890I-10310J-23210D01*
G37*
G36*
G01X3676510Y1460760D02*
X3711920Y1504280D01*
X3666200Y1556350D01*
X3620480Y1504280D01*
X3655890Y1460760D01*
G03X3676510I10310J23210D01*
G37*
G36*
G01X3655890Y1639240D02*
X3620480Y1595720D01*
X3666200Y1543650D01*
X3711920Y1595720D01*
X3676510Y1639240D01*
G03X3655890I-10310J-23210D01*
G37*
G36*
G01X3676510Y1610760D02*
X3711920Y1654280D01*
X3666200Y1706350D01*
X3620480Y1654280D01*
X3655890Y1610760D01*
G03X3676510I10310J23210D01*
G37*
G36*
G01X3655890Y1789240D02*
X3620480Y1745720D01*
X3666200Y1693650D01*
X3711920Y1745720D01*
X3676510Y1789240D01*
G03X3655890I-10310J-23210D01*
G37*
G36*
G01X3642340Y2174420D02*
X3627500Y2187500D01*
X3546820Y2172500D01*
X3627500Y2157500D01*
X3642340Y2170580D01*
G03Y2174420I-12550J1920D01*
G37*
G36*
G01X3936830Y1836900D02*
X3996980Y1786200D01*
X4036250Y1835860D01*
X3996980Y1887800D01*
X3940770Y1868100D01*
G03X3936830Y1836900I17820J-18099D01*
G37*
G36*
G01X3755440Y1860310D02*
X3711920Y1895720D01*
X3659850Y1850000D01*
X3711920Y1804280D01*
X3755440Y1839690D01*
G03Y1860310I-23210J10310D01*
G37*
G36*
G01X3676510Y1760760D02*
X3711920Y1804280D01*
X3666200Y1856350D01*
X3620480Y1804280D01*
X3655890Y1760760D01*
G03X3676510I10310J23210D01*
G37*
G36*
G01X3542300Y2710100D02*
X3474530Y2642500D01*
X3550000Y2624320D01*
X3625470Y2642500D01*
X3557700Y2710100D01*
G03X3542300I-7700J-10100D01*
G37*
G36*
G01X3760760Y4306130D02*
X3711920Y4335720D01*
X3663040Y4289740D01*
X3711920Y4244280D01*
X3762050Y4289320D01*
G03X3760760Y4306130I-10119J7678D01*
G37*
G36*
G01X3735880Y4288020D02*
X3748460Y4275460D01*
X3773180Y4297000D01*
X3748460Y4318540D01*
X3735880Y4305980D01*
G03Y4288020I8980J-8980D01*
G37*
G36*
G01X4138250Y1501070D02*
X4164620Y1532200D01*
X4131600Y1586180D01*
X4098580Y1532200D01*
X4124950Y1501070D01*
G03X4138250I6650J10820D01*
G37*
G36*
G01X4123540Y1513940D02*
X4060480Y1445720D01*
X4105450Y1396920D01*
X4151920Y1445720D01*
X4143590Y1508300D01*
G03X4123540Y1513940I-11992J-4172D01*
G37*
G36*
G01X4058080Y1341580D02*
X4151920Y1354280D01*
X4108500Y1402190D01*
X4060480Y1445720D01*
X4045380Y1354610D01*
G03X4058080Y1341580I12700J-326D01*
G37*
G36*
G01X4195230Y1257430D02*
X4151920Y1295720D01*
X4103020Y1250000D01*
X4151920Y1204280D01*
X4195230Y1242570D01*
G03Y1257430I-10300J7430D01*
G37*
G36*
G01X4545890Y1939240D02*
X4510480Y1895720D01*
X4556200Y1843650D01*
X4601920Y1895720D01*
X4566510Y1939240D01*
G03X4545890I-10310J-23210D01*
G37*
G36*
G01X4566510Y1910760D02*
X4601920Y1954280D01*
X4556200Y2006350D01*
X4510480Y1954280D01*
X4545890Y1910760D01*
G03X4566510I10310J23210D01*
G37*
G36*
G01X4202340Y2239420D02*
X4187500Y2252500D01*
X4106820Y2237500D01*
X4187500Y2222500D01*
X4202340Y2235580D01*
G03Y2239420I-12550J1920D01*
G37*
G36*
G01X4017660Y2235580D02*
X4032500Y2222500D01*
X4113180Y2237500D01*
X4032500Y2252500D01*
X4017660Y2239420D01*
G03Y2235580I12550J-1920D01*
G37*
G36*
G01X4202340Y2174420D02*
X4187500Y2187500D01*
X4106820Y2172500D01*
X4187500Y2157500D01*
X4202340Y2170580D01*
G03Y2174420I-12550J1920D01*
G37*
G36*
G01X4017660Y2625580D02*
X4032500Y2612500D01*
X4113180Y2627500D01*
X4032500Y2642500D01*
X4017660Y2629420D01*
G03Y2625580I12550J-1920D01*
G37*
G36*
G01Y2560580D02*
X4032500Y2547500D01*
X4113180Y2562500D01*
X4032500Y2577500D01*
X4017660Y2564420D01*
G03Y2560580I12550J-1920D01*
G37*
G36*
G01X4202340Y2304420D02*
X4187500Y2317500D01*
X4106820Y2302500D01*
X4187500Y2287500D01*
X4202340Y2300580D01*
G03Y2304420I-12550J1920D01*
G37*
G36*
G01Y2434420D02*
X4187500Y2447500D01*
X4106820Y2432500D01*
X4187500Y2417500D01*
X4202340Y2430580D01*
G03Y2434420I-12550J1920D01*
G37*
G36*
G01Y2499420D02*
X4187500Y2512500D01*
X4106820Y2497500D01*
X4187500Y2482500D01*
X4202340Y2495580D01*
G03Y2499420I-12550J1920D01*
G37*
G36*
G01X4017660Y2495580D02*
X4032500Y2482500D01*
X4113180Y2497500D01*
X4032500Y2512500D01*
X4017660Y2499420D01*
G03Y2495580I12550J-1920D01*
G37*
G36*
G01X4202340Y2369420D02*
X4187500Y2382500D01*
X4106820Y2367500D01*
X4187500Y2352500D01*
X4202340Y2365580D01*
G03Y2369420I-12550J1920D01*
G37*
G36*
G01X4671020Y544120D02*
X4658460Y531540D01*
X4680000Y506820D01*
X4701540Y531540D01*
X4688980Y544120D01*
G03X4671020I-8980J-8980D01*
G37*
G36*
G01X4921020Y1184120D02*
X4908460Y1171540D01*
X4930000Y1146820D01*
X4951540Y1171540D01*
X4938980Y1184120D01*
G03X4921020I-8980J-8980D01*
G37*
G36*
G01X4841020Y804120D02*
X4828460Y791540D01*
X4850000Y766820D01*
X4871540Y791540D01*
X4858980Y804120D01*
G03X4841020I-8980J-8980D01*
G37*
G36*
G01X5001020Y924120D02*
X4988460Y911540D01*
X5010000Y886820D01*
X5031540Y911540D01*
X5018980Y924120D01*
G03X5001020I-8980J-8980D01*
G37*
G36*
G01X4761020Y664120D02*
X4748460Y651540D01*
X4770000Y626820D01*
X4791540Y651540D01*
X4778980Y664120D01*
G03X4761020I-8980J-8980D01*
G37*
G36*
G01X5081020Y1308120D02*
X5068460Y1295540D01*
X5090000Y1270820D01*
X5111540Y1295540D01*
X5098980Y1308120D01*
G03X5081020I-8980J-8980D01*
G37*
G36*
G01X4645440Y2010310D02*
X4601920Y2045720D01*
X4549850Y2000000D01*
X4601920Y1954280D01*
X4645440Y1989690D01*
G03Y2010310I-23210J10310D01*
G37*
G36*
G01X5161020Y1054120D02*
X5148460Y1041540D01*
X5170000Y1016820D01*
X5191540Y1041540D01*
X5178980Y1054120D01*
G03X5161020I-8980J-8980D01*
G37*
G54D10*
X382060Y704870D03*
Y1720870D03*
Y1212870D03*
Y2228870D03*
Y2736870D03*
Y3244870D03*
Y3752870D03*
Y4260870D03*
Y4768870D03*
X887130Y224060D03*
X890060Y704870D03*
Y1720870D03*
Y1212870D03*
Y2228870D03*
Y2736870D03*
Y3244870D03*
Y3752870D03*
Y4260870D03*
Y4768870D03*
Y5276870D03*
X1395130Y224060D03*
X1398060Y1720870D03*
Y1212870D03*
Y2228870D03*
Y2736870D03*
Y3244870D03*
Y3752870D03*
Y4260870D03*
Y4768870D03*
Y5276870D03*
X2411130Y224060D03*
X1903130D03*
X2414060Y704870D03*
X1906060D03*
X2414060Y1720870D03*
X1906060D03*
X2414060Y1212870D03*
X1906060D03*
X2414060Y2228870D03*
X1906060D03*
X2414060Y2736870D03*
X1906060D03*
X2414060Y3244870D03*
X1906060D03*
X2414060Y3752870D03*
X1906060D03*
X2414060Y4260870D03*
X1906060D03*
X2414060Y4768870D03*
X1906060D03*
X2414060Y5276870D03*
X1906060D03*
X2919130Y224060D03*
Y704060D03*
X2939130Y4786060D03*
Y5294060D03*
X3427130Y224060D03*
Y704060D03*
X3240000Y1100000D03*
X3340000D03*
Y1020000D03*
X3240000D03*
X3340000Y940000D03*
X3240000D03*
X3157000Y1697000D03*
Y1597000D03*
Y1497000D03*
Y1397000D03*
Y1297000D03*
X3400000Y2000000D03*
Y2100000D03*
X3157000Y1997000D03*
Y2097000D03*
Y1797000D03*
Y1897000D03*
X3390000Y4390000D03*
X3270000D03*
X3447130Y4786060D03*
X3270000Y4490000D03*
X3390000D03*
X3447130Y5294060D03*
X3935130Y224060D03*
Y704060D03*
X3770000Y950000D03*
X3990000Y1090000D03*
X3810000Y1980000D03*
Y2060000D03*
Y2140000D03*
X3770000Y4297000D03*
X3955130Y4786060D03*
Y5294060D03*
X4497130Y224060D03*
Y704060D03*
X4490000Y1110000D03*
X4220000Y1100000D03*
X4290000Y1600000D03*
Y1500000D03*
X4470000Y1600000D03*
Y1500000D03*
X4463130Y4786060D03*
Y5294060D03*
X5005130Y224060D03*
X4770000Y630000D03*
X4680000Y510000D03*
X4930000Y1150000D03*
X4850000Y770000D03*
X5010000Y890000D03*
X4650000Y1600000D03*
Y1500000D03*
Y1290000D03*
X5090000Y1274000D03*
X4670000Y2000000D03*
X4971130Y4786060D03*
Y5294060D03*
X5513130Y224060D03*
X5170000Y1020000D03*
X5297130Y1554060D03*
X5479130Y4786060D03*
Y5294060D03*
X6021130Y224060D03*
X5805130Y1554060D03*
X5987130Y4786060D03*
Y5294060D03*
X6529130Y224060D03*
X6313130Y1554060D03*
X6513130Y4786060D03*
Y5294060D03*
X7037130Y224060D03*
X6821130Y1554060D03*
X7021130Y4786060D03*
Y5294060D03*
X7545130Y224060D03*
X7329130Y1554060D03*
X7529130Y4786060D03*
Y5294060D03*
X8059130Y224060D03*
X8345130Y1554060D03*
X7837130D03*
X8037130Y4786060D03*
Y5294060D03*
X8567130Y224060D03*
X8770000Y1550000D03*
X8790000Y2180000D03*
X8539130Y5294060D03*
X9047130D03*
G54D20*
G01X9380000Y2290000D02*
X9460000Y2370000D01*
G01X9380000Y2290000D02*
X9500000D01*
G01X9370000D02*
X9380000D01*
G01X9370000D02*
X9480000Y2180000D01*
G01X9340000Y2290000D02*
X9370000D01*
G54D11*
X3666200Y950000D03*
X3513800D03*
X3666200Y1100000D03*
X3513800D03*
X3953800Y1250000D03*
X3513800Y1700000D03*
X3666200D03*
X3513800Y1550000D03*
X3666200D03*
X3513800Y1400000D03*
X3666200D03*
X3513800Y1250000D03*
X3666200D03*
X3953800Y1400000D03*
X3513800Y1850000D03*
X3666200D03*
X3953800Y2000000D03*
X3666200D03*
X3513800D03*
Y4290000D03*
X3666200D03*
X3513800Y4440000D03*
X3666200D03*
X4106200Y1250000D03*
Y1400000D03*
X4556200Y2000000D03*
X4403800D03*
X4556200Y1850000D03*
X4403800D03*
X4106200Y2000000D03*
G54D12*
X3928400Y1583000D03*
X4030000Y1837000D03*
X4131600Y1583000D03*
G54D13*
X3550000Y2237500D03*
Y2172500D03*
Y2627500D03*
Y2562500D03*
Y2497500D03*
Y2432500D03*
Y2367500D03*
Y2302500D03*
X4110000Y2172500D03*
Y2237500D03*
Y2302500D03*
Y2367500D03*
Y2432500D03*
Y2497500D03*
Y2562500D03*
Y2627500D03*
G54D14*
X9340000Y1020000D03*
X9086000D03*
X9340000Y766000D03*
X9086000D03*
X9340000Y1782000D03*
X9086000D03*
X9340000Y1528000D03*
X9086000D03*
X9340000Y1274000D03*
X9086000D03*
X9340000Y2290000D03*
X9086000D03*
X9340000Y2036000D03*
X9086000D03*
X9340000Y2798000D03*
X9086000D03*
X9340000Y2544000D03*
X9086000D03*
X9340000Y3306000D03*
X9086000D03*
X9340000Y3052000D03*
X9086000D03*
X9340000Y3814000D03*
X9086000D03*
X9340000Y3560000D03*
X9086000D03*
X9340000Y4322000D03*
X9086000D03*
X9340000Y4068000D03*
X9086000D03*
X9340000Y4830000D03*
X9086000D03*
X9340000Y4576000D03*
X9086000D03*
G54D15*
G01X433000Y347000D02*
G03I-160000J0D01*
G01Y5211000D02*
G03I-160000J0D01*
G01X1791000Y562000D02*
G03I-160000J0D01*
G01Y5020000D02*
G03I-160000J0D01*
G54D16*
G01X3550000Y2367500D02*
X3267500D01*
X3220500Y2320500D01*
Y2060500D01*
X3157000Y1997000D01*
G01Y2097000D02*
Y2367000D01*
X3222500Y2432500D01*
X3550000D01*
G01X3157000Y1797000D02*
X3320000Y1960000D01*
Y2200000D01*
X3357500Y2237500D01*
X3550000D01*
G01X3157000Y1897000D02*
X3270000Y2010000D01*
Y2250000D01*
X3322500Y2302500D01*
X3550000D01*
G01X3410000Y2510000D02*
X3422500Y2497500D01*
G01X3410000Y2560000D02*
X3412500Y2562500D01*
G01X3420000Y2630000D02*
X3422500Y2627500D01*
G01Y2497500D02*
X3550000D01*
G01X3412500Y2562500D02*
X3550000D01*
G01X3422500Y2627500D02*
X3550000D01*
G01X4106200Y1400000D02*
X4103800D01*
X3953800Y1250000D01*
G01X3670000Y2170000D02*
X3667500Y2172500D01*
G01D02*
X3550000D01*
G01X4403800Y2000000D02*
X4283160Y2120640D01*
X3999360D01*
X3973610Y2146390D01*
Y2202970D01*
X4008140Y2237500D01*
X4110000D01*
G01Y2497500D02*
X3977500D01*
X3920000Y2440000D01*
Y2140000D01*
X3980000Y2080000D01*
X4260000D01*
X4310000Y2030000D01*
Y1943800D01*
X4403800Y1850000D01*
G01X3550000Y2627500D02*
Y2700000D01*
G01X3880000Y2560000D02*
X3882500Y2562500D01*
G01X3890000Y2630000D02*
X3892500Y2627500D01*
G01X3882500Y2562500D02*
X4110000D01*
G01X3892500Y2627500D02*
X4110000D01*
G01X3770000Y4297000D02*
X3673200D01*
X3666200Y4290000D01*
G01X4131600Y1583000D02*
Y1425400D01*
X4106200Y1400000D01*
G01X4680000Y510000D02*
Y1120000D01*
X4550000Y1250000D01*
X4106200D01*
G01X4850000Y770000D02*
Y2070000D01*
X4682500Y2237500D01*
X4110000D01*
G01X4770000Y630000D02*
Y2050000D01*
X4647500Y2172500D01*
X4110000D01*
G01X4930000Y1150000D02*
Y2090000D01*
X4717500Y2302500D01*
X4110000D01*
G01X5090000Y1274000D02*
Y2130000D01*
X4787500Y2432500D01*
X4110000D01*
G01X5170000Y1020000D02*
Y2160000D01*
X4832500Y2497500D01*
X4110000D01*
G01X5010000Y890000D02*
Y2110000D01*
X4752500Y2367500D01*
X4110000D01*
G54D17*
G01X100000Y0D02*
X9540000D01*
G03X9640000Y100000I0J100000D01*
G01Y5490000D01*
G03X9540000Y5590000I-100000J0D01*
G01X100000D01*
G03X0Y5490000I0J-100000D01*
G01Y100000D01*
G03X100000Y0I100000J0D01*
G54D18*
G01X3513800Y1850000D02*
X3317770D01*
X3164770Y1697000D01*
X3157000D01*
G01X3513800Y1700000D02*
X3267770D01*
X3164770Y1597000D01*
X3157000D01*
G01X3513800Y1550000D02*
X3217770D01*
X3164770Y1497000D01*
X3157000D01*
G01Y1397000D02*
X3510800D01*
X3513800Y1400000D01*
G01Y1250000D02*
X3204000D01*
X3157000Y1297000D01*
G01X3666200Y950000D02*
X3770000D01*
G01X3666200Y1100000D02*
X3980000D01*
X3990000Y1090000D01*
G01X3666200Y1700000D02*
Y1850000D01*
G01Y1550000D02*
Y1700000D01*
G01Y1400000D02*
Y1550000D01*
G01Y1250000D02*
Y1400000D01*
G01Y1850000D02*
X4017000D01*
X4030000Y1837000D01*
G01X4556200Y2000000D02*
X4670000D01*
G01X4556200Y1850000D02*
Y2000000D01*
G54D19*
G01X8910000Y1530000D02*
X8912000Y1528000D01*
G01X9340000Y1782000D02*
X9086000Y1528000D01*
G01X8912000D02*
X9086000D01*
G01X9510000Y1790000D02*
X9348000D01*
X9340000Y1782000D01*
M02*
