G04 ================== begin FILE IDENTIFICATION RECORD ==================*
G04 Layout Name:  ILI9488_TEST_V10A.brd*
G04 Film Name:    Drill_Legend*
G04 File Format:  Gerber RS274X*
G04 File Origin:  Cadence Allegro 17.2-S031*
G04 Origin Date:  Fri Jan 26 12:25:33 2018*
G04 *
G04 Layer:  MANUFACTURING/NCLEGEND-1-2*
G04 Layer:  MANUFACTURING/NCDRILL_LEGEND*
G04 Layer:  MANUFACTURING/NCDRILL_FIGURE*
G04 Layer:  BOARD GEOMETRY/DIMENSION*
G04 Layer:  BOARD GEOMETRY/OUTLINE*
G04 *
G04 Offset:    (0.0000 0.0000)*
G04 Mirror:    No*
G04 Mode:      Positive*
G04 Rotation:  0*
G04 FullContactRelief:  No*
G04 UndefLineWidth:     0.1524*
G04 ================== end FILE IDENTIFICATION RECORD ====================*
%FSLAX55Y55*MOMM*%
%IR0*IPPOS*OFA0.00000B0.00000*MIA0B0*SFA1.00000B1.00000*%
%AMMACRO10*
1,1,.1524,.1524,0.0*
20,1,.1524,.1524,0.0,-.1524,0.0,0.0*
1,1,.1524,-.1524,0.0*
1,1,.1524,0.0,.1524*
20,1,.1524,0.0,.1524,0.0,-.1524,0.0*
1,1,.1524,0.0,-.1524*
%
%ADD10MACRO10*%
%AMMACRO11*
1,1,.1524,.4445,.4445*
20,1,.1524,.4445,.4445,.4445,-.4445,0.0*
1,1,.1524,.4445,-.4445*
20,1,.1524,.4445,-.4445,-.4445,-.4445,0.0*
1,1,.1524,-.4445,-.4445*
20,1,.1524,-.4445,-.4445,-.4445,.4445,0.0*
1,1,.1524,-.4445,.4445*
20,1,.1524,-.4445,.4445,.4445,.4445,0.0*
1,1,.1524,.4445,.4445*
%
%ADD11MACRO11*%
%ADD12C,.127*%
%ADD13C,.1524*%
G75*
%LPD*%
G75*
G54D10*
X382060Y704870D03*
Y1720870D03*
Y1212870D03*
Y2228870D03*
Y2736870D03*
Y3244870D03*
Y3752870D03*
Y4260870D03*
Y4768870D03*
X887130Y224060D03*
X890060Y704870D03*
Y1720870D03*
Y1212870D03*
Y2228870D03*
Y2736870D03*
Y3244870D03*
Y3752870D03*
Y4260870D03*
Y4768870D03*
Y5276870D03*
X1395130Y224060D03*
X1398060Y1720870D03*
Y1212870D03*
Y2228870D03*
Y2736870D03*
Y3244870D03*
Y3752870D03*
Y4260870D03*
Y4768870D03*
Y5276870D03*
X2411130Y224060D03*
X1903130D03*
X2414060Y704870D03*
X1906060D03*
X2414060Y1720870D03*
X1906060D03*
X2414060Y1212870D03*
X1906060D03*
X2414060Y2228870D03*
X1906060D03*
X2414060Y2736870D03*
X1906060D03*
X2414060Y3244870D03*
X1906060D03*
X2414060Y3752870D03*
X1906060D03*
X2414060Y4260870D03*
X1906060D03*
X2414060Y4768870D03*
X1906060D03*
X2414060Y5276870D03*
X1906060D03*
X2919130Y224060D03*
Y704060D03*
X2939130Y4786060D03*
Y5294060D03*
X3427130Y224060D03*
Y704060D03*
X3240000Y1100000D03*
X3340000D03*
Y1020000D03*
X3240000D03*
X3340000Y940000D03*
X3240000D03*
X3157000Y1697000D03*
Y1597000D03*
Y1497000D03*
Y1397000D03*
Y1297000D03*
X3400000Y2000000D03*
Y2100000D03*
X3157000Y1997000D03*
Y2097000D03*
Y1797000D03*
Y1897000D03*
X3390000Y4390000D03*
X3270000D03*
X3447130Y4786060D03*
X3270000Y4490000D03*
X3390000D03*
X3447130Y5294060D03*
X3935130Y224060D03*
Y704060D03*
X3770000Y950000D03*
X3990000Y1090000D03*
X3810000Y1980000D03*
Y2060000D03*
Y2140000D03*
X3770000Y4297000D03*
X3955130Y4786060D03*
Y5294060D03*
X4497130Y224060D03*
Y704060D03*
X4490000Y1110000D03*
X4220000Y1100000D03*
X4290000Y1600000D03*
Y1500000D03*
X4470000Y1600000D03*
Y1500000D03*
X4463130Y4786060D03*
Y5294060D03*
X5005130Y224060D03*
X4770000Y630000D03*
X4680000Y510000D03*
X4930000Y1150000D03*
X4850000Y770000D03*
X5010000Y890000D03*
X4650000Y1600000D03*
Y1500000D03*
Y1290000D03*
X5090000Y1274000D03*
X4670000Y2000000D03*
X4971130Y4786060D03*
Y5294060D03*
X5513130Y224060D03*
X5170000Y1020000D03*
X5297130Y1554060D03*
X5479130Y4786060D03*
Y5294060D03*
X6021130Y224060D03*
X5805130Y1554060D03*
X5987130Y4786060D03*
Y5294060D03*
X6529130Y224060D03*
X6313130Y1554060D03*
X6513130Y4786060D03*
Y5294060D03*
X7037130Y224060D03*
X6821130Y1554060D03*
X7021130Y4786060D03*
Y5294060D03*
X7545130Y224060D03*
X7329130Y1554060D03*
X7529130Y4786060D03*
Y5294060D03*
X8059130Y224060D03*
X8345130Y1554060D03*
X7837130D03*
X8037130Y4786060D03*
Y5294060D03*
X8567130Y224060D03*
X8770000Y1550000D03*
X8790000Y2180000D03*
X8539130Y5294060D03*
X9047130D03*
X11091730Y982500D03*
G54D11*
X9340000Y1020000D03*
X9086000D03*
X9340000Y766000D03*
X9086000D03*
X9340000Y1782000D03*
X9086000D03*
X9340000Y1528000D03*
X9086000D03*
X9340000Y1274000D03*
X9086000D03*
X9340000Y2290000D03*
X9086000D03*
X9340000Y2036000D03*
X9086000D03*
X9340000Y2798000D03*
X9086000D03*
X9340000Y2544000D03*
X9086000D03*
X9340000Y3306000D03*
X9086000D03*
X9340000Y3052000D03*
X9086000D03*
X9340000Y3814000D03*
X9086000D03*
X9340000Y3560000D03*
X9086000D03*
X9340000Y4322000D03*
X9086000D03*
X9340000Y4068000D03*
X9086000D03*
X9340000Y4830000D03*
X9086000D03*
X9340000Y4576000D03*
X9086000D03*
X11091730Y347500D03*
G54D12*
G01X433000Y347000D02*
G03I-160000J0D01*
G01Y5211000D02*
G03I-160000J0D01*
G01X1791000Y562000D02*
G03I-160000J0D01*
G01Y5020000D02*
G03I-160000J0D01*
G54D13*
G01X-827900Y2843320D02*
X-813680Y2827450D01*
X-797090Y2817920D01*
X-775750Y2814750D01*
X-754410Y2821100D01*
X-737820Y2833800D01*
X-725970Y2856020D01*
X-723600Y2881420D01*
X-728340Y2906820D01*
X-740190Y2922700D01*
X-756790Y2935400D01*
X-773380Y2938570D01*
X-789970Y2935400D01*
X-811310Y2922700D01*
X-804200Y3005250D01*
X-740190D01*
G01X-637400Y2843320D02*
X-623180Y2827450D01*
X-606590Y2817920D01*
X-585250Y2814750D01*
X-563910Y2821100D01*
X-547320Y2833800D01*
X-535470Y2856020D01*
X-533100Y2881420D01*
X-537840Y2906820D01*
X-549690Y2922700D01*
X-566290Y2935400D01*
X-582880Y2938570D01*
X-599470Y2935400D01*
X-620810Y2922700D01*
X-613700Y3005250D01*
X-549690D01*
G01X-394750Y2808400D02*
X-399490Y2811580D01*
Y2817920D01*
X-394750Y2821100D01*
X-390010Y2817920D01*
Y2811580D01*
X-394750Y2808400D01*
G01X-244550Y2836970D02*
X-227960Y2821100D01*
X-208990Y2814750D01*
X-190030Y2821100D01*
X-173430Y2840140D01*
X-161580Y2868730D01*
X-156840Y2897300D01*
Y2932220D01*
X-161580Y2960800D01*
X-173430Y2986200D01*
X-187660Y2998900D01*
X-204250Y3005250D01*
X-223220Y2998900D01*
X-237440Y2986200D01*
X-246920Y2967150D01*
X-251660Y2941750D01*
X-246920Y2919530D01*
X-235070Y2897300D01*
X-220840Y2884600D01*
X-204250Y2881420D01*
X-185290Y2887770D01*
X-171060Y2903650D01*
X-156840Y2932220D01*
G01X100000Y0D02*
X9540000D01*
G03X9640000Y100000I0J100000D01*
G01Y5490000D01*
G03X9540000Y5590000I-100000J0D01*
G01X100000D01*
G03X0Y5490000I0J-100000D01*
G01Y100000D01*
G03X100000Y0I100000J0D01*
G01X4563950Y-373030D02*
X4580540Y-388900D01*
X4599510Y-395250D01*
X4618470Y-388900D01*
X4635070Y-369860D01*
X4646920Y-341270D01*
X4651660Y-312700D01*
Y-277780D01*
X4646920Y-249200D01*
X4635070Y-223800D01*
X4620840Y-211100D01*
X4604250Y-204750D01*
X4585280Y-211100D01*
X4571060Y-223800D01*
X4561580Y-242850D01*
X4556840Y-268250D01*
X4561580Y-290470D01*
X4573430Y-312700D01*
X4587660Y-325400D01*
X4604250Y-328580D01*
X4623210Y-322230D01*
X4637440Y-306350D01*
X4651660Y-277780D01*
G01X4749710Y-315880D02*
X4766300Y-293650D01*
X4780530Y-280950D01*
X4799490Y-274600D01*
X4816090Y-280950D01*
X4827940Y-293650D01*
X4837420Y-312700D01*
X4839790Y-334930D01*
X4837420Y-353980D01*
X4827940Y-373030D01*
X4813710Y-388900D01*
X4797120Y-395250D01*
X4778160Y-388900D01*
X4761560Y-369860D01*
X4752080Y-341270D01*
X4749710Y-309530D01*
X4754450Y-268250D01*
X4761560Y-246020D01*
X4773410Y-223800D01*
X4790010Y-207920D01*
X4806600Y-204750D01*
X4823200Y-211100D01*
X4835050Y-226980D01*
G01X4985250Y-401600D02*
X4980510Y-398420D01*
Y-392080D01*
X4985250Y-388900D01*
X4989990Y-392080D01*
Y-398420D01*
X4985250Y-401600D01*
G01X5204200Y-395250D02*
Y-204750D01*
X5116480Y-341270D01*
X5235020D01*
G01X-250000Y0D02*
X-740000D01*
G01X-490000Y2664260D02*
Y0D01*
G01X-552500Y400000D02*
X-490000Y0D01*
X-427500Y400000D01*
X-552500D01*
G01X-490000Y3155740D02*
Y5590000D01*
G01X-427500Y5190000D02*
X-490000Y5590000D01*
X-552500Y5190000D01*
X-427500D01*
G01X-70000Y5590000D02*
X-740000D01*
G01X0Y-250000D02*
Y-550000D01*
G01X4382640Y-300000D02*
X0D01*
G01X400000Y-237500D02*
X0Y-300000D01*
X400000Y-362500D01*
Y-237500D01*
G01X5397360Y-300000D02*
X9640000D01*
G01X9240000Y-362500D02*
X9640000Y-300000D01*
X9240000Y-237500D01*
Y-362500D01*
G01X9640000Y-120000D02*
Y-550000D01*
G01X9950000Y30000D02*
Y3220000D01*
X22548400D01*
Y30000D01*
X9950000D01*
G01Y665000D02*
X22548400D01*
G01X10229520Y1458750D02*
Y1776250D01*
X10379140D01*
G01X10324010Y1622800D02*
X10229520D01*
G01X10572050Y1776250D02*
X10666530D01*
G01X10619290D02*
Y1458750D01*
G01X10572050D02*
X10666530D01*
G01X10957870Y1617500D02*
X11036620D01*
Y1522250D01*
X11012990Y1490490D01*
X10985430Y1469330D01*
X10946060Y1458750D01*
X10906690Y1469330D01*
X10879130Y1490490D01*
X10855510Y1522250D01*
X10839760Y1559290D01*
X10831880Y1601620D01*
Y1638670D01*
X10839760Y1670410D01*
X10855510Y1707460D01*
X10879130Y1739210D01*
X10902750Y1760370D01*
X10934250Y1776250D01*
X10961810D01*
X10993300Y1765670D01*
X11016930Y1744500D01*
G01X11162600Y1776250D02*
Y1548710D01*
X11178340Y1501070D01*
X11209840Y1469330D01*
X11249210Y1458750D01*
X11288580Y1469330D01*
X11320080Y1501070D01*
X11335820Y1548710D01*
Y1776250D01*
G01X11485430Y1458750D02*
Y1776250D01*
X11583850D01*
X11615350Y1760370D01*
X11635040Y1739210D01*
X11642910Y1696870D01*
X11635040Y1654540D01*
X11611410Y1628090D01*
X11583850Y1612200D01*
X11485430D01*
G01X11583850D02*
X11642910Y1458750D01*
G01X11957870D02*
X11800390D01*
Y1776250D01*
X11957870D01*
G01X11894880Y1622800D02*
X11800390D01*
G01X9950000Y1300000D02*
X22548400D01*
G01X9950000Y1935000D02*
X22548400D01*
G01X9950000Y2570000D02*
X22548400D01*
G01X11898810Y2093750D02*
X11997240Y2411250D01*
X12095670Y2093750D01*
G01X12060230Y2204870D02*
X11934240D01*
G01X12233460Y2411250D02*
Y2093750D01*
X12390940D01*
G01X12548420Y2411250D02*
Y2093750D01*
X12705900D01*
G01X13170470Y2411250D02*
Y2183710D01*
X13186210Y2136070D01*
X13217710Y2104330D01*
X13257080Y2093750D01*
X13296450Y2104330D01*
X13327950Y2136070D01*
X13343690Y2183710D01*
Y2411250D01*
G01X13481490Y2093750D02*
Y2411250D01*
X13662590Y2093750D01*
Y2411250D01*
G01X13839760D02*
X13934240D01*
G01X13887000D02*
Y2093750D01*
G01X13839760D02*
X13934240D01*
G01X14201960Y2411250D02*
Y2093750D01*
G01X14111410Y2411250D02*
X14292510D01*
G01X14434240Y2136070D02*
X14465740Y2109620D01*
X14501170Y2093750D01*
X14532670D01*
X14564160Y2109620D01*
X14587790Y2136070D01*
X14599600Y2173130D01*
X14591730Y2210160D01*
X14572040Y2241910D01*
X14536600Y2263090D01*
X14489360Y2273670D01*
X14461800Y2294830D01*
X14449990Y2331870D01*
X14457870Y2368920D01*
X14477550Y2395370D01*
X14505110Y2411250D01*
X14532670D01*
X14560230Y2400670D01*
X14583850Y2374210D01*
G01X15048410Y2093750D02*
X15146840Y2411250D01*
X15245270Y2093750D01*
G01X15209830Y2204870D02*
X15083840D01*
G01X15383060Y2093750D02*
Y2411250D01*
X15481480D01*
X15512980Y2395370D01*
X15532670Y2374210D01*
X15540540Y2331870D01*
X15532670Y2289540D01*
X15509040Y2263090D01*
X15481480Y2247200D01*
X15383060D01*
G01X15481480D02*
X15540540Y2093750D01*
G01X15855500D02*
X15698020D01*
Y2411250D01*
X15855500D01*
G01X15792510Y2257800D02*
X15698020D01*
G01X16359440Y2411250D02*
X16453920D01*
G01X16406680D02*
Y2093750D01*
G01X16359440D02*
X16453920D01*
G01X16631090D02*
Y2411250D01*
X16812190Y2093750D01*
Y2411250D01*
G01X17249190Y2093750D02*
Y2411250D01*
X17351560Y2146670D01*
X17453930Y2411250D01*
Y2093750D01*
G01X17619280Y2411250D02*
X17713760D01*
G01X17666520D02*
Y2093750D01*
G01X17619280D02*
X17713760D01*
G01X17902740Y2411250D02*
Y2093750D01*
X18060220D01*
G01X18217700Y2411250D02*
Y2093750D01*
X18375180D01*
G01X18564160Y2411250D02*
X18658640D01*
G01X18611400D02*
Y2093750D01*
G01X18564160D02*
X18658640D01*
G01X18823990D02*
Y2411250D01*
X18926360Y2146670D01*
X19028730Y2411250D01*
Y2093750D01*
G01X19320060D02*
X19162580D01*
Y2411250D01*
X19320060D01*
G01X19257070Y2257800D02*
X19162580D01*
G01X19556280Y2411250D02*
Y2093750D01*
G01X19465730Y2411250D02*
X19646830D01*
G01X19949980Y2093750D02*
X19792500D01*
Y2411250D01*
X19949980D01*
G01X19886990Y2257800D02*
X19792500D01*
G01X20107460Y2093750D02*
Y2411250D01*
X20205880D01*
X20237380Y2395370D01*
X20257070Y2374210D01*
X20264940Y2331870D01*
X20257070Y2289540D01*
X20233440Y2263090D01*
X20205880Y2247200D01*
X20107460D01*
G01X20205880D02*
X20264940Y2093750D01*
G01X20418480Y2136070D02*
X20449980Y2109620D01*
X20485410Y2093750D01*
X20516910D01*
X20548400Y2109620D01*
X20572030Y2136070D01*
X20583840Y2173130D01*
X20575970Y2210160D01*
X20556280Y2241910D01*
X20520840Y2263090D01*
X20473600Y2273670D01*
X20446040Y2294830D01*
X20434230Y2331870D01*
X20442110Y2368920D01*
X20461790Y2395370D01*
X20489350Y2411250D01*
X20516910D01*
X20544470Y2400670D01*
X20568090Y2374210D01*
G01X12233460Y1935000D02*
Y30000D01*
G01X12225590Y2743750D02*
Y3061250D01*
X12304320D01*
X12335820Y3045370D01*
X12359440Y3024210D01*
X12379130Y2992460D01*
X12394880Y2955410D01*
X12398810Y2902500D01*
X12394880Y2849580D01*
X12379130Y2812540D01*
X12359440Y2780780D01*
X12335820Y2759620D01*
X12304320Y2743750D01*
X12225590D01*
G01X12548420D02*
Y3061250D01*
X12646840D01*
X12678340Y3045370D01*
X12698030Y3024210D01*
X12705900Y2981870D01*
X12698030Y2939540D01*
X12674400Y2913090D01*
X12646840Y2897200D01*
X12548420D01*
G01X12646840D02*
X12705900Y2743750D01*
G01X12894880Y3061250D02*
X12989360D01*
G01X12942120D02*
Y2743750D01*
G01X12894880D02*
X12989360D01*
G01X13178340Y3061250D02*
Y2743750D01*
X13335820D01*
G01X13493300Y3061250D02*
Y2743750D01*
X13650780D01*
G01X14288570Y3034790D02*
X14264950Y3050670D01*
X14237400Y3061250D01*
X14205900D01*
X14170460Y3045370D01*
X14142910Y3018920D01*
X14123220Y2987160D01*
X14107470Y2934250D01*
X14103530Y2886620D01*
X14111410Y2839000D01*
X14123220Y2807250D01*
X14146840Y2775490D01*
X14174400Y2754330D01*
X14201960Y2743750D01*
X14229520D01*
X14257080Y2754330D01*
X14280700Y2770200D01*
X14300390Y2791360D01*
G01X14434240Y2743750D02*
Y3061250D01*
G01X14599600D02*
Y2743750D01*
G01Y2902500D02*
X14434240D01*
G01X14733450Y2743750D02*
X14831880Y3061250D01*
X14930310Y2743750D01*
G01X14894870Y2854870D02*
X14768880D01*
G01X15068100Y2743750D02*
Y3061250D01*
X15166520D01*
X15198020Y3045370D01*
X15217710Y3024210D01*
X15225580Y2981870D01*
X15217710Y2939540D01*
X15194080Y2913090D01*
X15166520Y2897200D01*
X15068100D01*
G01X15166520D02*
X15225580Y2743750D01*
G01X15461800Y3061250D02*
Y2743750D01*
G01X15371250Y3061250D02*
X15552350D01*
G01X15776760Y2733170D02*
X15768880Y2738460D01*
Y2749040D01*
X15776760Y2754330D01*
X15784640Y2749040D01*
Y2738460D01*
X15776760Y2733170D01*
G01Y2876030D02*
X15768880Y2881330D01*
Y2891910D01*
X15776760Y2897200D01*
X15784640Y2891910D01*
Y2881330D01*
X15776760Y2876030D01*
G01X16406680Y3061250D02*
Y2743750D01*
G01X16316130Y3061250D02*
X16497230D01*
G01X16721640Y2743750D02*
X16690140Y2749040D01*
X16662590Y2770200D01*
X16638960Y2801960D01*
X16623210Y2839000D01*
X16615340Y2881330D01*
Y2923670D01*
X16623210Y2966000D01*
X16638960Y3003040D01*
X16662590Y3034790D01*
X16690140Y3055960D01*
X16721640Y3061250D01*
X16753130Y3055960D01*
X16780690Y3034790D01*
X16804320Y3003040D01*
X16820070Y2966000D01*
X16827940Y2923670D01*
Y2881330D01*
X16820070Y2839000D01*
X16804320Y2801960D01*
X16780690Y2770200D01*
X16753130Y2749040D01*
X16721640Y2743750D01*
G01X16957860D02*
Y3061250D01*
X17052350D01*
X17083840Y3045370D01*
X17107470Y3008330D01*
X17115340Y2966000D01*
X17107470Y2923670D01*
X17087780Y2891910D01*
X17052350Y2876030D01*
X16957860D01*
G01X17666520Y3061250D02*
Y2743750D01*
G01X17611400Y2955410D02*
X17721640D01*
G01X17981480Y2743750D02*
X17957860Y2749040D01*
X17934240Y2770200D01*
X17918480Y2807250D01*
X17910610Y2849580D01*
X17918480Y2891910D01*
X17934240Y2928960D01*
X17957860Y2950120D01*
X17981480Y2955410D01*
X18005100Y2950120D01*
X18028720Y2928960D01*
X18044470Y2891910D01*
X18048410Y2849580D01*
X18044470Y2807250D01*
X18028720Y2770200D01*
X18005100Y2749040D01*
X17981480Y2743750D01*
G01X18642890Y2913090D02*
X18658640Y2928960D01*
X18670450Y2955410D01*
X18678330Y2992460D01*
X18670450Y3024210D01*
X18654710Y3045370D01*
X18627150Y3061250D01*
X18520850D01*
Y2743750D01*
X18650770D01*
X18678330Y2764910D01*
X18694080Y2796670D01*
X18701950Y2833710D01*
X18694080Y2870740D01*
X18670450Y2902500D01*
X18642890Y2913090D01*
X18520850D01*
G01X18926360Y2743750D02*
X18894860Y2749040D01*
X18867310Y2770200D01*
X18843680Y2801960D01*
X18827930Y2839000D01*
X18820060Y2881330D01*
Y2923670D01*
X18827930Y2966000D01*
X18843680Y3003040D01*
X18867310Y3034790D01*
X18894860Y3055960D01*
X18926360Y3061250D01*
X18957850Y3055960D01*
X18985410Y3034790D01*
X19009040Y3003040D01*
X19024790Y2966000D01*
X19032660Y2923670D01*
Y2881330D01*
X19024790Y2839000D01*
X19009040Y2801960D01*
X18985410Y2770200D01*
X18957850Y2749040D01*
X18926360Y2743750D01*
G01X19241320Y3061250D02*
Y2743750D01*
G01X19150770Y3061250D02*
X19331870D01*
G01X19556280D02*
Y2743750D01*
G01X19465730Y3061250D02*
X19646830D01*
G01X19871240Y2743750D02*
X19839740Y2749040D01*
X19812190Y2770200D01*
X19788560Y2801960D01*
X19772810Y2839000D01*
X19764940Y2881330D01*
Y2923670D01*
X19772810Y2966000D01*
X19788560Y3003040D01*
X19812190Y3034790D01*
X19839740Y3055960D01*
X19871240Y3061250D01*
X19902730Y3055960D01*
X19930290Y3034790D01*
X19953920Y3003040D01*
X19969670Y2966000D01*
X19977540Y2923670D01*
Y2881330D01*
X19969670Y2839000D01*
X19953920Y2801960D01*
X19930290Y2770200D01*
X19902730Y2749040D01*
X19871240Y2743750D01*
G01X20083830D02*
Y3061250D01*
X20186200Y2796670D01*
X20288570Y3061250D01*
Y2743750D01*
G01X12827940Y1458750D02*
Y1776250D01*
X12977560D01*
G01X12922430Y1622800D02*
X12827940D01*
G01X13170470Y1776250D02*
X13264950D01*
G01X13217710D02*
Y1458750D01*
G01X13170470D02*
X13264950D01*
G01X13442120D02*
Y1776250D01*
X13623220Y1458750D01*
Y1776250D01*
G01X13800390D02*
X13894870D01*
G01X13847630D02*
Y1458750D01*
G01X13800390D02*
X13894870D01*
G01X14079910Y1501070D02*
X14111410Y1474620D01*
X14146840Y1458750D01*
X14178340D01*
X14209830Y1474620D01*
X14233460Y1501070D01*
X14245270Y1538130D01*
X14237400Y1575160D01*
X14217710Y1606910D01*
X14182270Y1628090D01*
X14135030Y1638670D01*
X14107470Y1659830D01*
X14095660Y1696870D01*
X14103540Y1733920D01*
X14123220Y1760370D01*
X14150780Y1776250D01*
X14178340D01*
X14205900Y1765670D01*
X14229520Y1739210D01*
G01X14394870Y1458750D02*
Y1776250D01*
G01X14560230D02*
Y1458750D01*
G01Y1617500D02*
X14394870D01*
G01X14871250Y1458750D02*
X14713770D01*
Y1776250D01*
X14871250D01*
G01X14808260Y1622800D02*
X14713770D01*
G01X15020860Y1458750D02*
Y1776250D01*
X15099590D01*
X15131090Y1760370D01*
X15154710Y1739210D01*
X15174400Y1707460D01*
X15190150Y1670410D01*
X15194080Y1617500D01*
X15190150Y1564580D01*
X15174400Y1527540D01*
X15154710Y1495780D01*
X15131090Y1474620D01*
X15099590Y1458750D01*
X15020860D01*
G01X15304320Y1352920D02*
X15540540D01*
G01X15654710Y1501070D02*
X15686210Y1474620D01*
X15721640Y1458750D01*
X15753140D01*
X15784630Y1474620D01*
X15808260Y1501070D01*
X15820070Y1538130D01*
X15812200Y1575160D01*
X15792510Y1606910D01*
X15757070Y1628090D01*
X15709830Y1638670D01*
X15682270Y1659830D01*
X15670460Y1696870D01*
X15678340Y1733920D01*
X15698020Y1760370D01*
X15725580Y1776250D01*
X15753140D01*
X15780700Y1765670D01*
X15804320Y1739210D01*
G01X16005110Y1776250D02*
X16099590D01*
G01X16052350D02*
Y1458750D01*
G01X16005110D02*
X16099590D01*
G01X16292500Y1776250D02*
X16442120D01*
X16292500Y1458750D01*
X16442120D01*
G01X16761010D02*
X16603530D01*
Y1776250D01*
X16761010D01*
G01X16698020Y1622800D02*
X16603530D01*
G01X14162590Y506250D02*
X14131090Y495670D01*
X14107470Y469210D01*
X14091720Y437460D01*
X14079910Y395120D01*
X14075980Y347500D01*
X14079910Y299870D01*
X14091720Y257540D01*
X14107470Y225780D01*
X14131090Y199330D01*
X14162590Y188750D01*
X14194080Y199330D01*
X14217710Y225780D01*
X14233460Y257540D01*
X14245270Y299870D01*
X14249200Y347500D01*
X14245270Y395120D01*
X14233460Y437460D01*
X14217710Y469210D01*
X14194080Y495670D01*
X14162590Y506250D01*
G01X14477550Y178170D02*
X14469670Y183460D01*
Y194040D01*
X14477550Y199330D01*
X14485430Y194040D01*
Y183460D01*
X14477550Y178170D01*
G01X14792510Y188750D02*
X14820070Y194040D01*
X14851560Y209910D01*
X14871250Y236360D01*
X14879120Y273420D01*
X14871250Y310450D01*
X14847630Y342200D01*
X14812190Y358090D01*
X14772830D01*
X14749200Y368670D01*
X14729510Y395120D01*
X14721640Y432160D01*
X14733460Y469210D01*
X14761010Y495670D01*
X14792510Y506250D01*
X14824000Y495670D01*
X14851560Y469210D01*
X14863380Y432160D01*
X14855500Y395120D01*
X14835820Y368670D01*
X14812190Y358090D01*
X14772830D01*
X14737390Y342200D01*
X14713770Y310450D01*
X14705900Y273420D01*
X14713770Y236360D01*
X14733460Y209910D01*
X14764950Y194040D01*
X14792510Y188750D01*
G01X15107470D02*
X15135030Y194040D01*
X15166520Y209910D01*
X15186210Y236360D01*
X15194080Y273420D01*
X15186210Y310450D01*
X15162590Y342200D01*
X15127150Y358090D01*
X15087790D01*
X15064160Y368670D01*
X15044470Y395120D01*
X15036600Y432160D01*
X15048420Y469210D01*
X15075970Y495670D01*
X15107470Y506250D01*
X15138960Y495670D01*
X15166520Y469210D01*
X15178340Y432160D01*
X15170460Y395120D01*
X15150780Y368670D01*
X15127150Y358090D01*
X15087790D01*
X15052350Y342200D01*
X15028730Y310450D01*
X15020860Y273420D01*
X15028730Y236360D01*
X15048420Y209910D01*
X15079910Y194040D01*
X15107470Y188750D01*
G01X15355500Y225780D02*
X15383060Y199330D01*
X15414550Y188750D01*
X15446050Y199330D01*
X15473610Y231070D01*
X15493300Y278710D01*
X15501170Y326330D01*
Y384540D01*
X15493300Y432160D01*
X15473610Y474500D01*
X15449990Y495670D01*
X15422430Y506250D01*
X15390930Y495670D01*
X15367310Y474500D01*
X15351560Y442750D01*
X15343690Y400410D01*
X15351560Y363380D01*
X15371250Y326330D01*
X15394870Y305160D01*
X15422430Y299870D01*
X15453920Y310450D01*
X15477550Y336910D01*
X15501170Y384540D01*
G01X14005110Y1141250D02*
X13973610Y1130670D01*
X13949990Y1104210D01*
X13934240Y1072460D01*
X13922430Y1030120D01*
X13918500Y982500D01*
X13922430Y934870D01*
X13934240Y892540D01*
X13949990Y860780D01*
X13973610Y834330D01*
X14005110Y823750D01*
X14036600Y834330D01*
X14060230Y860780D01*
X14075980Y892540D01*
X14087790Y934870D01*
X14091720Y982500D01*
X14087790Y1030120D01*
X14075980Y1072460D01*
X14060230Y1104210D01*
X14036600Y1130670D01*
X14005110Y1141250D01*
G01X14320070Y813170D02*
X14312190Y818460D01*
Y829040D01*
X14320070Y834330D01*
X14327950Y829040D01*
Y818460D01*
X14320070Y813170D01*
G01X14548420Y887250D02*
X14572030Y850200D01*
X14603530Y829040D01*
X14638970Y823750D01*
X14670470Y829040D01*
X14701960Y855490D01*
X14721640Y887250D01*
X14725580Y919000D01*
X14717710Y956030D01*
X14690150Y982500D01*
X14662590Y993090D01*
X14627150D01*
G01X14662590D02*
X14686210Y1008960D01*
X14705900Y1035410D01*
X14713770Y1067160D01*
X14705900Y1098920D01*
X14686210Y1125370D01*
X14650780Y1141250D01*
X14615350Y1135960D01*
X14579910Y1114790D01*
G01X14949990Y1141250D02*
X14918490Y1130670D01*
X14894870Y1104210D01*
X14879120Y1072460D01*
X14867310Y1030120D01*
X14863380Y982500D01*
X14867310Y934870D01*
X14879120Y892540D01*
X14894870Y860780D01*
X14918490Y834330D01*
X14949990Y823750D01*
X14981480Y834330D01*
X15005110Y860780D01*
X15020860Y892540D01*
X15032670Y934870D01*
X15036600Y982500D01*
X15032670Y1030120D01*
X15020860Y1072460D01*
X15005110Y1104210D01*
X14981480Y1130670D01*
X14949990Y1141250D01*
G01X15312190Y823750D02*
Y1141250D01*
X15166520Y913710D01*
X15363380D01*
G01X15579910Y823750D02*
X15607470Y829040D01*
X15638960Y844910D01*
X15658650Y871360D01*
X15666520Y908420D01*
X15658650Y945450D01*
X15635030Y977200D01*
X15599590Y993090D01*
X15560230D01*
X15536600Y1003670D01*
X15516910Y1030120D01*
X15509040Y1067160D01*
X15520860Y1104210D01*
X15548410Y1130670D01*
X15579910Y1141250D01*
X15611400Y1130670D01*
X15638960Y1104210D01*
X15650780Y1067160D01*
X15642900Y1030120D01*
X15623220Y1003670D01*
X15599590Y993090D01*
X15560230D01*
X15524790Y977200D01*
X15501170Y945450D01*
X15493300Y908420D01*
X15501170Y871360D01*
X15520860Y844910D01*
X15552350Y829040D01*
X15579910Y823750D01*
G01X17351560Y1935000D02*
Y30000D01*
G01X18099590Y188750D02*
Y506250D01*
X18194080D01*
X18225570Y490370D01*
X18249200Y453330D01*
X18257070Y411000D01*
X18249200Y368670D01*
X18229510Y336910D01*
X18194080Y321030D01*
X18099590D01*
G01X18414550Y506250D02*
Y188750D01*
X18572030D01*
G01X18709820D02*
X18808250Y506250D01*
X18906680Y188750D01*
G01X18871240Y299870D02*
X18745250D01*
G01X19123210Y506250D02*
Y188750D01*
G01X19032660Y506250D02*
X19213760D01*
G01X19516910Y188750D02*
X19359430D01*
Y506250D01*
X19516910D01*
G01X19453920Y352800D02*
X19359430D01*
G01X19666520Y188750D02*
Y506250D01*
X19745250D01*
X19776750Y490370D01*
X19800370Y469210D01*
X19820060Y437460D01*
X19835810Y400410D01*
X19839740Y347500D01*
X19835810Y294580D01*
X19820060Y257540D01*
X19800370Y225780D01*
X19776750Y204620D01*
X19745250Y188750D01*
X19666520D01*
G01X18099590Y823750D02*
Y1141250D01*
X18194080D01*
X18225570Y1125370D01*
X18249200Y1088330D01*
X18257070Y1046000D01*
X18249200Y1003670D01*
X18229510Y971910D01*
X18194080Y956030D01*
X18099590D01*
G01X18414550Y1141250D02*
Y823750D01*
X18572030D01*
G01X18709820D02*
X18808250Y1141250D01*
X18906680Y823750D01*
G01X18871240Y934870D02*
X18745250D01*
G01X19123210Y1141250D02*
Y823750D01*
G01X19032660Y1141250D02*
X19213760D01*
G01X19516910Y823750D02*
X19359430D01*
Y1141250D01*
X19516910D01*
G01X19453920Y987800D02*
X19359430D01*
G01X19666520Y823750D02*
Y1141250D01*
X19745250D01*
X19776750Y1125370D01*
X19800370Y1104210D01*
X19820060Y1072460D01*
X19835810Y1035410D01*
X19839740Y982500D01*
X19835810Y929580D01*
X19820060Y892540D01*
X19800370Y860780D01*
X19776750Y839620D01*
X19745250Y823750D01*
X19666520D01*
G01X18099590Y1458750D02*
Y1776250D01*
X18194080D01*
X18225570Y1760370D01*
X18249200Y1723330D01*
X18257070Y1681000D01*
X18249200Y1638670D01*
X18229510Y1606910D01*
X18194080Y1591030D01*
X18099590D01*
G01X18414550Y1776250D02*
Y1458750D01*
X18572030D01*
G01X18709820D02*
X18808250Y1776250D01*
X18906680Y1458750D01*
G01X18871240Y1569870D02*
X18745250D01*
G01X19123210Y1776250D02*
Y1458750D01*
G01X19032660Y1776250D02*
X19213760D01*
G01X19516910Y1458750D02*
X19359430D01*
Y1776250D01*
X19516910D01*
G01X19453920Y1622800D02*
X19359430D01*
G01X19666520Y1458750D02*
Y1776250D01*
X19745250D01*
X19776750Y1760370D01*
X19800370Y1739210D01*
X19820060Y1707460D01*
X19835810Y1670410D01*
X19839740Y1617500D01*
X19835810Y1564580D01*
X19820060Y1527540D01*
X19800370Y1495780D01*
X19776750Y1474620D01*
X19745250Y1458750D01*
X19666520D01*
G01X20579900Y1935000D02*
Y30000D01*
G01X21249190Y823750D02*
Y1141250D01*
X21201950Y1077750D01*
G01Y823750D02*
X21296430D01*
G01X21611390D02*
Y1141250D01*
X21465720Y913710D01*
X21662580D01*
G01X21792500Y871360D02*
X21816110Y844910D01*
X21843670Y829040D01*
X21879110Y823750D01*
X21914550Y834330D01*
X21942100Y855490D01*
X21961790Y892540D01*
X21965720Y934870D01*
X21957850Y977200D01*
X21938160Y1003670D01*
X21910600Y1024830D01*
X21883050Y1030120D01*
X21855490Y1024830D01*
X21820060Y1003670D01*
X21831870Y1141250D01*
X21938160D01*
G01X21249190Y1458750D02*
X21217690Y1464040D01*
X21190140Y1485200D01*
X21166510Y1516960D01*
X21150760Y1554000D01*
X21142890Y1596330D01*
Y1638670D01*
X21150760Y1681000D01*
X21166510Y1718040D01*
X21190140Y1749790D01*
X21217690Y1770960D01*
X21249190Y1776250D01*
X21280680Y1770960D01*
X21308240Y1749790D01*
X21331870Y1718040D01*
X21347620Y1681000D01*
X21355490Y1638670D01*
Y1596330D01*
X21347620Y1554000D01*
X21331870Y1516960D01*
X21308240Y1485200D01*
X21280680Y1464040D01*
X21249190Y1458750D01*
G01X21280680Y1543420D02*
X21327930Y1458750D01*
G01X21564150Y1776250D02*
Y1458750D01*
G01X21473600Y1776250D02*
X21654700D01*
G01X21879110Y1458750D02*
Y1601620D01*
X21800370Y1776250D01*
G01X21957850D02*
X21879110Y1601620D01*
G01X21320060Y252250D02*
X21343670Y215200D01*
X21375170Y194040D01*
X21410610Y188750D01*
X21442110Y194040D01*
X21473600Y220490D01*
X21493280Y252250D01*
X21497220Y284000D01*
X21489350Y321030D01*
X21461790Y347500D01*
X21434230Y358090D01*
X21398790D01*
G01X21434230D02*
X21457850Y373960D01*
X21477540Y400410D01*
X21485410Y432160D01*
X21477540Y463920D01*
X21457850Y490370D01*
X21422420Y506250D01*
X21386990Y500960D01*
X21351550Y479790D01*
G01X21768870Y188750D02*
Y506250D01*
X21623200Y278710D01*
X21820060D01*
M02*
