M48
METRIC,TZ
T01C.3048
T02C.889
;LEADER: 12 
;HEADER: 
;CODE  : ASCII 
;FILE  : ILI9488_TEST_V10A-1-2.drl for board H:/GitHub/TFT-ILI9488-TEST/HARDWARE/ILI9488_TEST_V10A/PCB/#Taaaacb12752.tmp ... layers TOP and BOTTOM
;T01 Holesize 1. = 0.304800 Tolerance = +0.000000/-0.000000 PLATED MM Quantity = 145
;T02 Holesize 2. = 0.889000 Tolerance = +0.000000/-0.000000 PLATED MM Quantity = 34
%
G90
T01
X382060Y704870
X382060Y1212870
X887130Y224060
X890060Y704870
X890060Y1212870
X1395130Y224060
X1398060Y1212870
X1903130Y224060
X1906060Y704870
X1906060Y1212870
X2411130Y224060
X2414060Y704870
X2414060Y1212870
X2919130Y224060
X2919130Y704060
X3240000Y940000
X3240000Y1020000
X3240000Y1100000
X3340000Y940000
X3340000Y1020000
X3340000Y1100000
X3427130Y224060
X3427130Y704060
X3770000Y950000
X3935130Y224060
X3935130Y704060
X3990000Y1090000
X4220000Y1100000
X4490000Y1110000
X4497130Y224060
X4497130Y704060
X4680000Y510000
X4770000Y630000
X4850000Y770000
X4930000Y1150000
X5005130Y224060
X5010000Y890000
X5170000Y1020000
X5513130Y224060
X6021130Y224060
X6529130Y224060
X7037130Y224060
X7545130Y224060
X8059130Y224060
X8567130Y224060
X8790000Y2180000
X8770000Y1550000
X8345130Y1554060
X7837130Y1554060
X7329130Y1554060
X6821130Y1554060
X6313130Y1554060
X5805130Y1554060
X5297130Y1554060
X5090000Y1274000
X4670000Y2000000
X4650000Y1600000
X4650000Y1500000
X4650000Y1290000
X4470000Y1600000
X4470000Y1500000
X4290000Y1600000
X4290000Y1500000
X3810000Y2140000
X3810000Y2060000
X3810000Y1980000
X3400000Y2100000
X3400000Y2000000
X3157000Y2097000
X3157000Y1997000
X3157000Y1897000
X3157000Y1797000
X3157000Y1697000
X3157000Y1597000
X3157000Y1497000
X3157000Y1397000
X3157000Y1297000
X2414060Y2228870
X2414060Y1720870
X1906060Y2228870
X1906060Y1720870
X1398060Y2228870
X1398060Y1720870
X890060Y2228870
X890060Y1720870
X382060Y2228870
X382060Y1720870
X382060Y2736870
X382060Y3244870
X382060Y3752870
X890060Y2736870
X890060Y3244870
X890060Y3752870
X1398060Y2736870
X1398060Y3244870
X1398060Y3752870
X1906060Y2736870
X1906060Y3244870
X1906060Y3752870
X2414060Y2736870
X2414060Y3244870
X2414060Y3752870
X382060Y4260870
X382060Y4768870
X890060Y4260870
X890060Y4768870
X1398060Y4260870
X1398060Y4768870
X1906060Y4260870
X1906060Y4768870
X2414060Y4260870
X2414060Y4768870
X2939130Y4786060
X3270000Y4390000
X3270000Y4490000
X3390000Y4390000
X3390000Y4490000
X3447130Y4786060
X3770000Y4297000
X3955130Y4786060
X4463130Y4786060
X4971130Y4786060
X5479130Y4786060
X5987130Y4786060
X6513130Y4786060
X7021130Y4786060
X7529130Y4786060
X8037130Y4786060
X9047130Y5294060
X8539130Y5294060
X8037130Y5294060
X7529130Y5294060
X7021130Y5294060
X6513130Y5294060
X5987130Y5294060
X5479130Y5294060
X4971130Y5294060
X4463130Y5294060
X3955130Y5294060
X3447130Y5294060
X2939130Y5294060
X2414060Y5276870
X1906060Y5276870
X1398060Y5276870
X890060Y5276870
T02
X9086000Y766000
X9340000Y766000
X9340000Y1020000
X9086000Y1020000
X9086000Y1274000
X9340000Y1274000
X9340000Y1528000
X9086000Y1528000
X9086000Y1782000
X9340000Y1782000
X9340000Y2036000
X9086000Y2036000
X9086000Y2290000
X9340000Y2290000
X9340000Y2544000
X9086000Y2544000
X9086000Y2798000
X9340000Y2798000
X9340000Y3052000
X9086000Y3052000
X9086000Y3306000
X9340000Y3306000
X9340000Y3560000
X9086000Y3560000
X9086000Y3814000
X9340000Y3814000
X9340000Y4068000
X9086000Y4068000
X9086000Y4322000
X9340000Y4322000
X9340000Y4576000
X9086000Y4576000
X9086000Y4830000
X9340000Y4830000
M30
