G04 ================== begin FILE IDENTIFICATION RECORD ==================*
G04 Layout Name:  ILI9488_TEST_V10A.brd*
G04 Film Name:    PasteMask_Bottom*
G04 File Format:  Gerber RS274X*
G04 File Origin:  Cadence Allegro 17.2-S031*
G04 Origin Date:  Fri Jan 26 12:20:49 2018*
G04 *
G04 Layer:  BOARD GEOMETRY/OUTLINE*
G04 Layer:  PIN/PASTEMASK_BOTTOM*
G04 Layer:  PACKAGE GEOMETRY/PASTEMASK_BOTTOM*
G04 *
G04 Offset:    (0.0000 0.0000)*
G04 Mirror:    No*
G04 Mode:      Positive*
G04 Rotation:  0*
G04 FullContactRelief:  No*
G04 UndefLineWidth:     0.1524*
G04 ================== end FILE IDENTIFICATION RECORD ====================*
%FSLAX55Y55*MOMM*%
%IR0*IPPOS*OFA0.00000B0.00000*MIA0B0*SFA1.00000B1.00000*%
%ADD12R,1.55X.3*%
%ADD11R,.6604X1.016*%
%ADD10R,.9144X.9144*%
%ADD13C,1.778*%
%ADD14C,.127*%
%ADD15C,.1524*%
G75*
%LPD*%
G75*
G54D10*
X3666200Y950000D03*
X3513800D03*
X3666200Y1100000D03*
X3513800D03*
X3953800Y1250000D03*
X3513800Y1700000D03*
X3666200D03*
X3513800Y1550000D03*
X3666200D03*
X3513800Y1400000D03*
X3666200D03*
X3513800Y1250000D03*
X3666200D03*
X3953800Y1400000D03*
X3513800Y1850000D03*
X3666200D03*
X3953800Y2000000D03*
X3666200D03*
X3513800D03*
Y4290000D03*
X3666200D03*
X3513800Y4440000D03*
X3666200D03*
X4106200Y1250000D03*
Y1400000D03*
X4556200Y2000000D03*
X4403800D03*
X4556200Y1850000D03*
X4403800D03*
X4106200Y2000000D03*
G54D11*
X3928400Y1583000D03*
X4030000Y1837000D03*
X4131600Y1583000D03*
G54D12*
X3550000Y2237500D03*
Y2172500D03*
Y2627500D03*
Y2562500D03*
Y2497500D03*
Y2432500D03*
Y2367500D03*
Y2302500D03*
X4110000Y2172500D03*
Y2237500D03*
Y2302500D03*
Y2367500D03*
Y2432500D03*
Y2497500D03*
Y2562500D03*
Y2627500D03*
G54D13*
X9340000Y1020000D03*
X9086000D03*
X9340000Y766000D03*
X9086000D03*
X9340000Y1782000D03*
X9086000D03*
X9340000Y1528000D03*
X9086000D03*
X9340000Y1274000D03*
X9086000D03*
X9340000Y2290000D03*
X9086000D03*
X9340000Y2036000D03*
X9086000D03*
X9340000Y2798000D03*
X9086000D03*
X9340000Y2544000D03*
X9086000D03*
X9340000Y3306000D03*
X9086000D03*
X9340000Y3052000D03*
X9086000D03*
X9340000Y3814000D03*
X9086000D03*
X9340000Y3560000D03*
X9086000D03*
X9340000Y4322000D03*
X9086000D03*
X9340000Y4068000D03*
X9086000D03*
X9340000Y4830000D03*
X9086000D03*
X9340000Y4576000D03*
X9086000D03*
G54D14*
G01X433000Y347000D02*
G03I-160000J0D01*
G01Y5211000D02*
G03I-160000J0D01*
G01X1791000Y562000D02*
G03I-160000J0D01*
G01Y5020000D02*
G03I-160000J0D01*
G54D15*
G01X100000Y0D02*
X9540000D01*
G03X9640000Y100000I0J100000D01*
G01Y5490000D01*
G03X9540000Y5590000I-100000J0D01*
G01X100000D01*
G03X0Y5490000I0J-100000D01*
G01Y100000D01*
G03X100000Y0I100000J0D01*
M02*
