G04 ================== begin FILE IDENTIFICATION RECORD ==================*
G04 Layout Name:  ILI9488_TEST_V10A.brd*
G04 Film Name:    PasteMask_Top*
G04 File Format:  Gerber RS274X*
G04 File Origin:  Cadence Allegro 17.2-S031*
G04 Origin Date:  Fri Jan 26 12:20:49 2018*
G04 *
G04 Layer:  BOARD GEOMETRY/OUTLINE*
G04 Layer:  PIN/PASTEMASK_TOP*
G04 Layer:  PACKAGE GEOMETRY/PASTEMASK_TOP*
G04 *
G04 Offset:    (0.0000 0.0000)*
G04 Mirror:    No*
G04 Mode:      Positive*
G04 Rotation:  0*
G04 FullContactRelief:  No*
G04 UndefLineWidth:     0.1524*
G04 ================== end FILE IDENTIFICATION RECORD ====================*
%FSLAX55Y55*MOMM*%
%IR0*IPPOS*OFA0.00000B0.00000*MIA0B0*SFA1.00000B1.00000*%
%ADD10R,3.099X.508*%
%ADD11C,1.778*%
%ADD12C,.127*%
%ADD13C,.1524*%
G75*
%LPD*%
G75*
G54D10*
X2927000Y997000D03*
Y1097000D03*
Y1197000D03*
Y1297000D03*
Y1397000D03*
Y1497000D03*
Y1597000D03*
Y1697000D03*
Y1797000D03*
Y1897000D03*
Y1997000D03*
Y2097000D03*
Y2197000D03*
Y2297000D03*
Y2397000D03*
Y2497000D03*
Y2597000D03*
Y2697000D03*
Y2797000D03*
Y2897000D03*
Y2997000D03*
Y3097000D03*
Y3197000D03*
Y3297000D03*
Y3397000D03*
Y3497000D03*
Y3597000D03*
Y3697000D03*
Y3797000D03*
Y3897000D03*
Y3997000D03*
Y4097000D03*
Y4197000D03*
Y4297000D03*
Y4397000D03*
Y4497000D03*
Y4597000D03*
G54D11*
X9340000Y1020000D03*
X9086000D03*
X9340000Y766000D03*
X9086000D03*
X9340000Y1782000D03*
X9086000D03*
X9340000Y1528000D03*
X9086000D03*
X9340000Y1274000D03*
X9086000D03*
X9340000Y2290000D03*
X9086000D03*
X9340000Y2036000D03*
X9086000D03*
X9340000Y2798000D03*
X9086000D03*
X9340000Y2544000D03*
X9086000D03*
X9340000Y3306000D03*
X9086000D03*
X9340000Y3052000D03*
X9086000D03*
X9340000Y3814000D03*
X9086000D03*
X9340000Y3560000D03*
X9086000D03*
X9340000Y4322000D03*
X9086000D03*
X9340000Y4068000D03*
X9086000D03*
X9340000Y4830000D03*
X9086000D03*
X9340000Y4576000D03*
X9086000D03*
G54D12*
G01X433000Y347000D02*
G03I-160000J0D01*
G01Y5211000D02*
G03I-160000J0D01*
G01X1791000Y562000D02*
G03I-160000J0D01*
G01Y5020000D02*
G03I-160000J0D01*
G54D13*
G01X100000Y0D02*
X9540000D01*
G03X9640000Y100000I0J100000D01*
G01Y5490000D01*
G03X9540000Y5590000I-100000J0D01*
G01X100000D01*
G03X0Y5490000I0J-100000D01*
G01Y100000D01*
G03X100000Y0I100000J0D01*
M02*
