G04 ================== begin FILE IDENTIFICATION RECORD ==================*
G04 Layout Name:  ILI9488_TEST_V10A.brd*
G04 Film Name:    TOP*
G04 File Format:  Gerber RS274X*
G04 File Origin:  Cadence Allegro 17.2-S031*
G04 Origin Date:  Fri Jan 26 12:20:49 2018*
G04 *
G04 Layer:  BOARD GEOMETRY/OUTLINE*
G04 Layer:  VIA CLASS/TOP*
G04 Layer:  PIN/TOP*
G04 Layer:  ETCH/TOP*
G04 *
G04 Offset:    (0.0000 0.0000)*
G04 Mirror:    No*
G04 Mode:      Positive*
G04 Rotation:  0*
G04 FullContactRelief:  No*
G04 UndefLineWidth:     0.1524*
G04 ================== end FILE IDENTIFICATION RECORD ====================*
%FSLAX55Y55*MOMM*%
%IR0*IPPOS*OFA0.00000B0.00000*MIA0B0*SFA1.00000B1.00000*%
%ADD11R,3.099X.508*%
%ADD10C,.6096*%
%ADD12C,1.778*%
%ADD13C,.3*%
%ADD14C,.127*%
%ADD15C,.254*%
%ADD16C,.1524*%
%ADD17C,.508*%
%ADD18C,.762*%
%ADD19C,1.27*%
%ADD20C,5.0362*%
G75*
%LPD*%
G75*
G36*
G01X100000Y20000D02*
G02X20000Y100000I5000J85000D01*
G01Y221130D01*
G02X58220Y230750I20321J0D01*
G03Y469250I221780J119250D01*
G02X20000Y478870I-17899J9620D01*
G01Y5064050D01*
G02X57470Y5074950I20320J1D01*
G03Y5345050I212530J135050D01*
G02X20000Y5355950I-17150J10899D01*
G01Y5490000D01*
G02X100000Y5570000I78333J1667D01*
G01X9540000D01*
G02X9620000Y5490000I-5000J-85000D01*
G01Y100000D01*
G02X9540000Y20000I-85000J5000D01*
G01X100000D01*
G37*
%LPC*%
G75*
G36*
G01X3408950Y1275740D02*
X3455740Y1228950D01*
Y901050D01*
X3408950Y854260D01*
X3121050D01*
X3074260Y901050D01*
Y910000D01*
X2730000D01*
Y1070000D01*
X2731390D01*
Y2122400D01*
G02X2772050Y2163060I40660J0D01*
G01X3081950D01*
G02X3110780Y2151080I7J-40663D01*
G02X3207610Y2047000I46221J-54081D01*
G02Y1947000I-50610J-50000D01*
G02Y1847000I-50610J-50000D01*
G02Y1747000I-50610J-50000D01*
G02Y1647000I-50610J-50000D01*
G02Y1547000I-50610J-50000D01*
G02Y1447000I-50610J-50000D01*
G02Y1347000I-50610J-50000D01*
G02X3228140Y1296270I-50609J-50000D01*
G03X3248450Y1275740I20317J-212D01*
G01X3408950D01*
G37*
G36*
G01X4727050Y456640D02*
G02X4682430Y581100I-47049J53361D01*
G03X4702430Y607760I698J20309D01*
G02X4771950Y701110I67572J22239D01*
G03X4789720Y732220I555J20313D01*
G02X4897050Y823360I60279J37781D01*
G01X4931140D01*
G03X4948660Y853970I-2J20320D01*
G02X5057050Y943360I61341J36030D01*
G01X5097940D01*
G03X5113950Y976190I-2J20320D01*
G02Y1063810I56050J43810D01*
G03X5097940Y1096640I-16012J12510D01*
G01X4977050D01*
G02Y1203360I-47050J53360D01*
G01X5013630D01*
G03X5030600Y1234860I0J20321D01*
G02X5025880Y1304820I59400J39147D01*
G03X5007570Y1333940I-18314J8801D01*
G01X4137360D01*
X4056060Y1252640D01*
Y1116460D01*
X4056690Y1114750D01*
G02X3923310I-66690J-24750D01*
G01X3923940Y1116460D01*
Y1307360D01*
X4082640Y1466060D01*
X8936730D01*
G03X8956310Y1491840I6J20321D01*
G02X8978250Y1608740I129691J36168D01*
G03X8961990Y1641240I-16262J12182D01*
G01X8955930D01*
X8948950Y1634260D01*
X3928950D01*
X3875740Y1581050D01*
Y881050D01*
X3818950Y824260D01*
X3661050D01*
X3604260Y881050D01*
Y2108950D01*
X3711050Y2215740D01*
X8678950D01*
X8968040Y1926650D01*
X8983800D01*
Y1940650D01*
X8981250Y1943530D01*
G02X9000980Y2146880I104748J92469D01*
G03Y2179120I-12364J16120D01*
G02X8985760Y2192670I85049J110854D01*
G01X8985700Y2192730D01*
X8934770Y2243640D01*
X3111470D01*
G02X3081950Y2230940I-29520J27958D01*
G01X2772050D01*
G02X2731390Y2271600I0J40660D01*
G01Y4530000D01*
X2730000D01*
Y4670000D01*
X3130000D01*
Y4563060D01*
X3168370D01*
X3181050Y4575740D01*
X3428950D01*
X3485740Y4518950D01*
Y4350360D01*
X3722950D01*
G02X3817050I47050J-53360D01*
G01X8530900D01*
X8946280Y4765740D01*
Y4830000D01*
G02X9196880Y4915020I139722J0D01*
G03X9229120I16120J12364D01*
G02X9425020Y4719120I110880J-85020D01*
G03Y4686880I12364J-16120D01*
G02Y4465120I-85020J-110880D01*
G03Y4432880I12364J-16120D01*
G02Y4211120I-85020J-110880D01*
G03Y4178880I12364J-16120D01*
G02Y3957120I-85020J-110880D01*
G03Y3924880I12364J-16120D01*
G02Y3703120I-85020J-110880D01*
G03Y3670880I12364J-16120D01*
G02Y3449120I-85020J-110880D01*
G03Y3416880I12364J-16120D01*
G02Y3195120I-85020J-110880D01*
G03Y3162880I12364J-16120D01*
G02Y2941120I-85020J-110880D01*
G03Y2908880I12364J-16120D01*
G02Y2687120I-85020J-110880D01*
G03Y2654880I12364J-16120D01*
G02X9421310Y2430370I-85017J-110881D01*
G03X9420920Y2397610I11824J-16523D01*
G02X9459610Y2228180I-80920J-107611D01*
G03X9468640Y2213360I9027J-4661D01*
G01X9472100D01*
X9553360Y2132100D01*
Y557900D01*
X9452100Y456640D01*
X4727050D01*
G37*
G54D20*
X1630000Y560000D03*
Y5020000D03*
%LPD*%
G75*
G36*
G01X3410000Y1210000D02*
Y920000D01*
X3390000Y900000D01*
X3140000D01*
X3120000Y920000D01*
Y1210000D01*
X3140000Y1230000D01*
X3390000D01*
X3410000Y1210000D01*
G37*
G36*
G01X3122880Y1988020D02*
X3135460Y1975460D01*
X3160180Y1997000D01*
X3135460Y2018540D01*
X3122880Y2005980D01*
G03Y1988020I8980J-8980D01*
G37*
G36*
G01Y2088020D02*
X3135460Y2075460D01*
X3160180Y2097000D01*
X3135460Y2118540D01*
X3122880Y2105980D01*
G03Y2088020I8980J-8980D01*
G37*
G36*
G01Y1788020D02*
X3135460Y1775460D01*
X3160180Y1797000D01*
X3135460Y1818540D01*
X3122880Y1805980D01*
G03Y1788020I8980J-8980D01*
G37*
G36*
G01Y1888020D02*
X3135460Y1875460D01*
X3160180Y1897000D01*
X3135460Y1918540D01*
X3122880Y1905980D01*
G03Y1888020I8980J-8980D01*
G37*
G36*
G01X3440000Y4370000D02*
X3410000Y4340000D01*
X3200000D01*
X3170000Y4370000D01*
Y4500000D01*
X3200000Y4530000D01*
X3410000D01*
X3440000Y4500000D01*
Y4370000D01*
G37*
G36*
G01X8967560Y1717560D02*
X8930000Y1680000D01*
X3910000D01*
X3830000Y1600000D01*
Y900000D01*
X3800000Y870000D01*
X3680000D01*
X3650000Y900000D01*
Y2090000D01*
X3730000Y2170000D01*
X8660000D01*
X8970000Y1860000D01*
Y1850410D01*
X8968690Y1848080D01*
G03X8964470Y1724040I117309J-66083D01*
G01X8967560Y1717560D01*
G37*
G36*
G01X3804120Y4305980D02*
X3791540Y4318540D01*
X3766820Y4297000D01*
X3791540Y4275460D01*
X3804120Y4288020D01*
G03Y4305980I-8980J8980D01*
G37*
G36*
G01X3735880Y4288020D02*
X3748460Y4275460D01*
X3773180Y4297000D01*
X3748460Y4318540D01*
X3735880Y4305980D01*
G03Y4288020I8980J-8980D01*
G37*
G36*
G01X4804120Y638980D02*
X4791540Y651540D01*
X4766820Y630000D01*
X4791540Y608460D01*
X4804120Y621020D01*
G03Y638980I-8980J8980D01*
G37*
G36*
G01X4714120Y518980D02*
X4701540Y531540D01*
X4676820Y510000D01*
X4701540Y488460D01*
X4714120Y501020D01*
G03Y518980I-8980J8980D01*
G37*
G36*
G01X4964120Y1158980D02*
X4951540Y1171540D01*
X4926820Y1150000D01*
X4951540Y1128460D01*
X4964120Y1141020D01*
G03Y1158980I-8980J8980D01*
G37*
G36*
G01X4884120Y778980D02*
X4871540Y791540D01*
X4846820Y770000D01*
X4871540Y748460D01*
X4884120Y761020D01*
G03Y778980I-8980J8980D01*
G37*
G36*
G01X5044120Y898980D02*
X5031540Y911540D01*
X5006820Y890000D01*
X5031540Y868460D01*
X5044120Y881020D01*
G03Y898980I-8980J8980D01*
G37*
G36*
G01X5204120Y1028980D02*
X5191540Y1041540D01*
X5166820Y1020000D01*
X5191540Y998460D01*
X5204120Y1011020D01*
G03Y1028980I-8980J8980D01*
G37*
G36*
G01X5124120Y1282980D02*
X5111540Y1295540D01*
X5086820Y1274000D01*
X5111540Y1252460D01*
X5124120Y1265020D01*
G03Y1282980I-8980J8980D01*
G37*
G36*
G01X8965260Y761020D02*
X9023150Y703150D01*
X9089170Y765890D01*
X9023840Y829490D01*
X8965950Y779620D01*
G03X8965260Y761020I8290J-9620D01*
G37*
G36*
G01X8969260Y1011020D02*
X9023150Y957150D01*
X9089180Y1020000D01*
X9023150Y1082850D01*
X8969260Y1028980D01*
G03Y1011020I8980J-8980D01*
G37*
G36*
G01X9263800Y931100D02*
X9340000D01*
X9342250Y1022250D01*
X9251100Y1020000D01*
Y943800D01*
G03X9263800Y931100I12700J0D01*
G37*
G36*
G01X9264800Y671140D02*
X9341000Y677150D01*
X9342160Y768330D01*
X9251100Y766000D01*
Y683800D01*
G03X9264800Y671140I12699J0D01*
G37*
G36*
G01X9257800Y1185100D02*
X9340000D01*
X9342330Y1276160D01*
X9251150Y1275000D01*
X9245140Y1198800D01*
G03X9257800Y1185100I12660J-1001D01*
G37*
G36*
G01X8969260Y1265020D02*
X9023150Y1211150D01*
X9089180Y1274000D01*
X9023150Y1336850D01*
X8969260Y1282980D01*
G03Y1265020I8980J-8980D01*
G37*
G36*
G01X9276500Y1439100D02*
X9340000D01*
X9344490Y1532490D01*
X9251100Y1528000D01*
Y1464500D01*
G03X9276500Y1439100I25400J0D01*
G37*
G36*
G01X8962260Y2288020D02*
X9023150Y2227150D01*
X9089170Y2289810D01*
X9024380Y2353930D01*
X8963490Y2307060D01*
G03X8962260Y2288020I7750J-10060D01*
G37*
G36*
G01X9162200Y2124900D02*
X9086000D01*
X9083750Y2033750D01*
X9174900Y2036000D01*
Y2112200D01*
G03X9162200Y2124900I-12700J0D01*
G37*
G36*
G01X9009800Y2709100D02*
X9086000D01*
X9088250Y2800250D01*
X8997100Y2798000D01*
Y2721800D01*
G03X9009800Y2709100I12700J0D01*
G37*
G36*
G01X8946180Y2484330D02*
X9031260Y2478540D01*
X9089010Y2545020D01*
X9023150Y2591050D01*
X8938060Y2505980D01*
G03X8946180Y2484330I8980J-8980D01*
G37*
G36*
G01X9263800Y2709100D02*
X9340000D01*
X9342250Y2800250D01*
X9251100Y2798000D01*
Y2721800D01*
G03X9263800Y2709100I12700J0D01*
G37*
G36*
G01Y2455100D02*
X9340000D01*
X9342250Y2546250D01*
X9251100Y2544000D01*
Y2467800D01*
G03X9263800Y2455100I12700J0D01*
G37*
G36*
G01X9009800Y3217100D02*
X9086000D01*
X9088250Y3308250D01*
X8997100Y3306000D01*
Y3229800D01*
G03X9009800Y3217100I12700J0D01*
G37*
G36*
G01Y2963100D02*
X9086000D01*
X9088250Y3054250D01*
X8997100Y3052000D01*
Y2975800D01*
G03X9009800Y2963100I12700J0D01*
G37*
G36*
G01X9263800Y3217100D02*
X9340000D01*
X9342250Y3308250D01*
X9251100Y3306000D01*
Y3229800D01*
G03X9263800Y3217100I12700J0D01*
G37*
G36*
G01Y2963100D02*
X9340000D01*
X9342250Y3054250D01*
X9251100Y3052000D01*
Y2975800D01*
G03X9263800Y2963100I12700J0D01*
G37*
G36*
G01X9009800Y3725100D02*
X9086000D01*
X9088250Y3816250D01*
X8997100Y3814000D01*
Y3737800D01*
G03X9009800Y3725100I12700J0D01*
G37*
G36*
G01Y3471100D02*
X9086000D01*
X9088250Y3562250D01*
X8997100Y3560000D01*
Y3483800D01*
G03X9009800Y3471100I12700J0D01*
G37*
G36*
G01X9263800Y3725100D02*
X9340000D01*
X9342250Y3816250D01*
X9251100Y3814000D01*
Y3737800D01*
G03X9263800Y3725100I12700J0D01*
G37*
G36*
G01Y3471100D02*
X9340000D01*
X9342250Y3562250D01*
X9251100Y3560000D01*
Y3483800D01*
G03X9263800Y3471100I12700J0D01*
G37*
G36*
G01X9009800Y3979100D02*
X9086000D01*
X9088250Y4070250D01*
X8997100Y4068000D01*
Y3991800D01*
G03X9009800Y3979100I12700J0D01*
G37*
G36*
G01X9263800Y4233100D02*
X9340000D01*
X9342250Y4324250D01*
X9251100Y4322000D01*
Y4245800D01*
G03X9263800Y4233100I12700J0D01*
G37*
G36*
G01Y3979100D02*
X9340000D01*
X9342250Y4070250D01*
X9251100Y4068000D01*
Y3991800D01*
G03X9263800Y3979100I12700J0D01*
G37*
G36*
G01X9009800Y4233100D02*
X9086000D01*
X9088250Y4324250D01*
X8997100Y4322000D01*
Y4245800D01*
G03X9009800Y4233100I12700J0D01*
G37*
G36*
G01Y4741100D02*
X9086000D01*
X9088250Y4832250D01*
X8997100Y4830000D01*
Y4753800D01*
G03X9009800Y4741100I12700J0D01*
G37*
G36*
G01Y4487100D02*
X9086000D01*
X9088250Y4578250D01*
X8997100Y4576000D01*
Y4499800D01*
G03X9009800Y4487100I12700J0D01*
G37*
G36*
G01X9263800Y4741100D02*
X9340000D01*
X9342250Y4832250D01*
X9251100Y4830000D01*
Y4753800D01*
G03X9263800Y4741100I12700J0D01*
G37*
G36*
G01Y4487100D02*
X9340000D01*
X9342250Y4578250D01*
X9251100Y4576000D01*
Y4499800D01*
G03X9263800Y4487100I12700J0D01*
G37*
G54D10*
X382060Y704870D03*
Y1720870D03*
Y1212870D03*
Y2228870D03*
Y2736870D03*
Y3244870D03*
Y3752870D03*
Y4260870D03*
Y4768870D03*
X887130Y224060D03*
X890060Y704870D03*
Y1720870D03*
Y1212870D03*
Y2228870D03*
Y2736870D03*
Y3244870D03*
Y3752870D03*
Y4260870D03*
Y4768870D03*
Y5276870D03*
X1395130Y224060D03*
X1398060Y1720870D03*
Y1212870D03*
Y2228870D03*
Y2736870D03*
Y3244870D03*
Y3752870D03*
Y4260870D03*
Y4768870D03*
Y5276870D03*
X2411130Y224060D03*
X1903130D03*
X2414060Y704870D03*
X1906060D03*
X2414060Y1720870D03*
X1906060D03*
X2414060Y1212870D03*
X1906060D03*
X2414060Y2228870D03*
X1906060D03*
X2414060Y2736870D03*
X1906060D03*
X2414060Y3244870D03*
X1906060D03*
X2414060Y3752870D03*
X1906060D03*
X2414060Y4260870D03*
X1906060D03*
X2414060Y4768870D03*
X1906060D03*
X2414060Y5276870D03*
X1906060D03*
X2919130Y224060D03*
Y704060D03*
X2939130Y4786060D03*
Y5294060D03*
X3427130Y224060D03*
Y704060D03*
X3240000Y1100000D03*
X3340000D03*
Y1020000D03*
X3240000D03*
X3340000Y940000D03*
X3240000D03*
X3157000Y1697000D03*
Y1597000D03*
Y1497000D03*
Y1397000D03*
Y1297000D03*
X3400000Y2000000D03*
Y2100000D03*
X3157000Y1997000D03*
Y2097000D03*
Y1797000D03*
Y1897000D03*
X3390000Y4390000D03*
X3270000D03*
X3447130Y4786060D03*
X3270000Y4490000D03*
X3390000D03*
X3447130Y5294060D03*
X3935130Y224060D03*
Y704060D03*
X3770000Y950000D03*
X3990000Y1090000D03*
X3810000Y1980000D03*
Y2060000D03*
Y2140000D03*
X3770000Y4297000D03*
X3955130Y4786060D03*
Y5294060D03*
X4497130Y224060D03*
Y704060D03*
X4490000Y1110000D03*
X4220000Y1100000D03*
X4290000Y1600000D03*
Y1500000D03*
X4470000Y1600000D03*
Y1500000D03*
X4463130Y4786060D03*
Y5294060D03*
X5005130Y224060D03*
X4770000Y630000D03*
X4680000Y510000D03*
X4930000Y1150000D03*
X4850000Y770000D03*
X5010000Y890000D03*
X4650000Y1600000D03*
Y1500000D03*
Y1290000D03*
X5090000Y1274000D03*
X4670000Y2000000D03*
X4971130Y4786060D03*
Y5294060D03*
X5513130Y224060D03*
X5170000Y1020000D03*
X5297130Y1554060D03*
X5479130Y4786060D03*
Y5294060D03*
X6021130Y224060D03*
X5805130Y1554060D03*
X5987130Y4786060D03*
Y5294060D03*
X6529130Y224060D03*
X6313130Y1554060D03*
X6513130Y4786060D03*
Y5294060D03*
X7037130Y224060D03*
X6821130Y1554060D03*
X7021130Y4786060D03*
Y5294060D03*
X7545130Y224060D03*
X7329130Y1554060D03*
X7529130Y4786060D03*
Y5294060D03*
X8059130Y224060D03*
X8345130Y1554060D03*
X7837130D03*
X8037130Y4786060D03*
Y5294060D03*
X8567130Y224060D03*
X8770000Y1550000D03*
X8790000Y2180000D03*
X8539130Y5294060D03*
X9047130D03*
G54D11*
X2927000Y997000D03*
Y1097000D03*
Y1197000D03*
Y1297000D03*
Y1397000D03*
Y1497000D03*
Y1597000D03*
Y1697000D03*
Y1797000D03*
Y1897000D03*
Y1997000D03*
Y2097000D03*
Y2197000D03*
Y2297000D03*
Y2397000D03*
Y2497000D03*
Y2597000D03*
Y2697000D03*
Y2797000D03*
Y2897000D03*
Y2997000D03*
Y3097000D03*
Y3197000D03*
Y3297000D03*
Y3397000D03*
Y3497000D03*
Y3597000D03*
Y3697000D03*
Y3797000D03*
Y3897000D03*
Y3997000D03*
Y4097000D03*
Y4197000D03*
Y4297000D03*
Y4397000D03*
Y4497000D03*
Y4597000D03*
G54D12*
X9340000Y1020000D03*
X9086000D03*
X9340000Y766000D03*
X9086000D03*
X9340000Y1782000D03*
X9086000D03*
X9340000Y1528000D03*
X9086000D03*
X9340000Y1274000D03*
X9086000D03*
X9340000Y2290000D03*
X9086000D03*
X9340000Y2036000D03*
X9086000D03*
X9340000Y2798000D03*
X9086000D03*
X9340000Y2544000D03*
X9086000D03*
X9340000Y3306000D03*
X9086000D03*
X9340000Y3052000D03*
X9086000D03*
X9340000Y3814000D03*
X9086000D03*
X9340000Y3560000D03*
X9086000D03*
X9340000Y4322000D03*
X9086000D03*
X9340000Y4068000D03*
X9086000D03*
X9340000Y4830000D03*
X9086000D03*
X9340000Y4576000D03*
X9086000D03*
G54D13*
G01X8960000Y1400000D02*
X9180000D01*
G54D14*
G01X433000Y347000D02*
G03I-160000J0D01*
G01Y5211000D02*
G03I-160000J0D01*
G01X1791000Y562000D02*
G03I-160000J0D01*
G01Y5020000D02*
G03I-160000J0D01*
G54D15*
G01X2927000Y1997000D02*
X3157000D01*
G01X2927000Y2097000D02*
X3157000D01*
G01X2927000Y1797000D02*
X3157000D01*
G01X2927000Y1897000D02*
X3157000D01*
G01X9086000Y2798000D02*
X8985000Y2697000D01*
X2927000D01*
G01X9086000Y2544000D02*
X9039000Y2497000D01*
X2927000D01*
G01X9086000Y2290000D02*
X9079000Y2297000D01*
X2927000D01*
G01X9340000Y2798000D02*
X9212000Y2670000D01*
X9030000D01*
X8957000Y2597000D01*
X2927000D01*
G01X9340000Y2544000D02*
X9216000Y2420000D01*
X8990010D01*
X8967010Y2397000D01*
X2927000D01*
G01X9086000Y3560000D02*
X8823000Y3297000D01*
X2927000D01*
G01X9086000Y3306000D02*
X8877000Y3097000D01*
X2927000D01*
G01X9086000Y3052000D02*
X8931000Y2897000D01*
X2927000D01*
G01X9340000Y3560000D02*
X9210000Y3430000D01*
X9020000D01*
X8787000Y3197000D01*
X2927000D01*
G01X9340000Y3306000D02*
X9214000Y3180000D01*
X9030000D01*
X8847000Y2997000D01*
X2927000D01*
G01X9340000Y3052000D02*
X9208000Y2920000D01*
X9030000D01*
X8907000Y2797000D01*
X2927000D01*
G01X9086000Y4068000D02*
X8715000Y3697000D01*
X2927000D01*
G01X9086000Y3814000D02*
X8769000Y3497000D01*
X2927000D01*
G01X9340000Y4322000D02*
X9208000Y4190000D01*
X9020000D01*
X8627000Y3797000D01*
X2927000D01*
G01X9340000Y4068000D02*
X9207920Y3935920D01*
X9015920D01*
X8677000Y3597000D01*
X2927000D01*
G01X9340000Y3814000D02*
X9216000Y3690000D01*
X9030000D01*
X8737000Y3397000D01*
X2927000D01*
G01Y4297000D02*
X3770000D01*
G01X9086000Y4576000D02*
X8607000Y4097000D01*
X2927000D01*
G01X9086000Y4322000D02*
X8661000Y3897000D01*
X2927000D01*
G01X9340000Y4830000D02*
X9210000Y4700000D01*
X9020000D01*
X8517000Y4197000D01*
X2927000D01*
G01X9340000Y4576000D02*
X9214000Y4450000D01*
X9020000D01*
X8567000Y3997000D01*
X2927000D01*
G01X9086000Y4830000D02*
X8553000Y4297000D01*
X3770000D01*
G01X9340000Y766000D02*
Y760000D01*
X9210000Y630000D01*
X4770000D01*
G01X9086000Y2036000D02*
X9210000Y2160000D01*
X9450000D01*
X9500000Y2110000D01*
Y580000D01*
X9430000Y510000D01*
X4680000D01*
G01X9340000Y1274000D02*
X9334000D01*
X9210000Y1150000D01*
X4930000D01*
G01X9086000Y766000D02*
X9082000Y770000D01*
X4850000D01*
G01X9340000Y1020000D02*
X9210000Y890000D01*
X5010000D01*
G01X9086000Y1274000D02*
X5090000D01*
G01X9086000Y1020000D02*
X5170000D01*
G54D16*
G01X100000Y0D02*
X9540000D01*
G03X9640000Y100000I0J100000D01*
G01Y5490000D01*
G03X9540000Y5590000I-100000J0D01*
G01X100000D01*
G03X0Y5490000I0J-100000D01*
G01Y100000D01*
G03X100000Y0I100000J0D01*
G54D17*
G01X2710000Y1000000D02*
X2713000Y997000D01*
G01X2927000D02*
Y883000D01*
G01X2713000Y997000D02*
X2927000D01*
G01Y883000D02*
X2930000Y880000D01*
G01X2927000Y1097000D02*
X3143000D01*
G01X2927000Y1697000D02*
X3157000D01*
G01X2927000Y1597000D02*
X3157000D01*
G01X2927000Y1497000D02*
X3157000D01*
G01X2927000Y1397000D02*
X3157000D01*
G01X2927000Y1297000D02*
X3157000D01*
G01X2927000Y1197000D02*
X3147000D01*
G01X3187000Y4397000D02*
X2927000D01*
G01X2700000Y4600000D02*
X2703000Y4597000D01*
G01X2927000D02*
Y4687000D01*
G01Y4597000D02*
X3147000D01*
G01X2703000D02*
X2927000D01*
G01Y4687000D02*
X2930000Y4690000D01*
G01X3207000Y4497000D02*
X2927000D01*
G01X3143000Y1097000D02*
X3150000Y1090000D01*
G01X3147000Y1197000D02*
X3150000Y1200000D01*
G01X3190000Y4400000D02*
X3187000Y4397000D01*
G01X3147000Y4597000D02*
X3150000Y4600000D01*
G01X3210000Y4500000D02*
X3207000Y4497000D01*
G01X3990000Y1090000D02*
Y1280000D01*
X4110000Y1400000D01*
X8960000D01*
G01X9180000D02*
X9212000D01*
X9340000Y1528000D01*
G54D18*
G01X8952000D02*
X8872000D01*
G01D02*
X8870000Y1530000D01*
G01X8910000Y1570000D02*
X8930000Y1590000D01*
G01D02*
X9030000D01*
X9086000Y1534000D01*
Y1528000D01*
G01X8920000Y1720000D02*
X9030000D01*
X9086000Y1776000D01*
Y1782000D01*
G01X8920000Y1780000D02*
X8922000Y1782000D01*
G01X8910000Y1840000D02*
X8917890Y1847890D01*
G01X8922000Y1782000D02*
X9086000D01*
G01X8917890Y1847890D02*
X9032110D01*
X9086000Y1794000D01*
Y1782000D01*
G54D19*
G01X8952000Y1528000D02*
X8910000Y1570000D01*
G01X9086000Y1528000D02*
X8952000D01*
G01X9340000Y2036000D02*
X9086000Y1782000D01*
G01X9370000Y2290000D02*
X9460000Y2380000D01*
G01X9370000Y2290000D02*
X9490000D01*
G01X9340000D02*
X9370000D01*
G01X9490000D02*
X9510000Y2270000D01*
M02*
